<?xml version="1.0" encoding="UTF-8" standalone="no"?>
<!DOCTYPE svg PUBLIC "-//W3C//DTD SVG 1.1//EN"
 "http://www.w3.org/Graphics/SVG/1.1/DTD/svg11.dtd">
<!-- Generated by graphviz version 2.40.1 (20161225.0304)
 -->
<!-- Title: G Pages: 1 -->
<svg width="944pt" height="1700pt"
 viewBox="0.00 0.00 943.99 1700.00" xmlns="http://www.w3.org/2000/svg" xmlns:xlink="http://www.w3.org/1999/xlink">
<g id="graph0" class="graph" transform="scale(1 1) rotate(0) translate(4 1696)">
<title>G</title>
<polygon fill="#ffffff" stroke="transparent" points="-4,4 -4,-1696 939.9896,-1696 939.9896,4 -4,4"/>
<!-- 1 -->
<g id="Rnode1" class="node">
<title>1</title>
<ellipse fill="none" stroke="#000000" cx="689.9452" cy="-306" rx="102.0819" ry="18"/>
<text text-anchor="middle" x="689.9452" y="-302.3" font-family="Times,serif" font-size="14.00" fill="#000000">(NP&#45;cap&#45;coNP)/poly</text>
</g>
<!-- 25 -->
<g id="Rnode25" class="node">
<title>25</title>
<ellipse fill="none" stroke="#000000" cx="689.9452" cy="-378" rx="48.1917" ry="18"/>
<text text-anchor="middle" x="689.9452" y="-374.3" font-family="Times,serif" font-size="14.00" fill="#000000">NP/poly</text>
</g>
<!-- 1&#45;&gt;25 -->
<g id="edge77" class="edge">
<title>1&#45;&gt;25</title>
<path fill="none" stroke="#000000" d="M689.9452,-324.1686C689.9452,-331.869 689.9452,-341.0257 689.9452,-349.5834"/>
<polygon fill="#000000" stroke="#000000" points="686.4453,-349.5867 689.9452,-359.5867 693.4453,-349.5868 686.4453,-349.5867"/>
</g>
<!-- 2 -->
<g id="Rnode2" class="node">
<title>2</title>
<ellipse fill="none" stroke="#000000" cx="536.9452" cy="-738" rx="27" ry="18"/>
<text text-anchor="middle" x="536.9452" y="-734.3" font-family="Times,serif" font-size="14.00" fill="#000000">+P</text>
</g>
<!-- 18 -->
<g id="Rnode18" class="node">
<title>18</title>
<ellipse fill="none" stroke="#000000" cx="502.9452" cy="-954" rx="27" ry="18"/>
<text text-anchor="middle" x="502.9452" y="-950.3" font-family="Times,serif" font-size="14.00" fill="#000000">MP</text>
</g>
<!-- 2&#45;&gt;18 -->
<g id="edge47" class="edge">
<title>2&#45;&gt;18</title>
<path fill="none" stroke="#000000" d="M528.1646,-755.5386C523.4044,-765.8848 517.9044,-779.3848 514.9452,-792 504.1823,-837.8828 502.3575,-892.8935 502.3879,-925.5641"/>
<polygon fill="#000000" stroke="#000000" points="498.8892,-925.7666 502.4591,-935.7418 505.889,-925.7176 498.8892,-925.7666"/>
</g>
<!-- 3 -->
<g id="Rnode3" class="node">
<title>3</title>
<ellipse fill="none" stroke="#000000" cx="293.9452" cy="-1602" rx="27" ry="18"/>
<text text-anchor="middle" x="293.9452" y="-1598.3" font-family="Times,serif" font-size="14.00" fill="#000000">AH</text>
</g>
<!-- 5 -->
<g id="Rnode5" class="node">
<title>5</title>
<ellipse fill="none" stroke="#000000" cx="320.9452" cy="-1674" rx="30.5947" ry="18"/>
<text text-anchor="middle" x="320.9452" y="-1670.3" font-family="Times,serif" font-size="14.00" fill="#000000">ALL</text>
</g>
<!-- 3&#45;&gt;5 -->
<g id="edge88" class="edge">
<title>3&#45;&gt;5</title>
<path fill="none" stroke="#000000" d="M300.6194,-1619.7978C303.6928,-1627.9936 307.4068,-1637.8976 310.8148,-1646.9855"/>
<polygon fill="#000000" stroke="#000000" points="307.5594,-1648.2726 314.3478,-1656.407 314.1137,-1645.8147 307.5594,-1648.2726"/>
</g>
<!-- 4 -->
<g id="Rnode4" class="node">
<title>4</title>
<ellipse fill="none" stroke="#000000" cx="201.9452" cy="-1530" rx="44.6926" ry="18"/>
<text text-anchor="middle" x="201.9452" y="-1526.3" font-family="Times,serif" font-size="14.00" fill="#000000">AH_plo</text>
</g>
<!-- 4&#45;&gt;3 -->
<g id="edge46" class="edge">
<title>4&#45;&gt;3</title>
<path fill="none" stroke="#000000" d="M222.8214,-1546.3379C236.294,-1556.8816 253.9141,-1570.6713 268.2456,-1581.8872"/>
<polygon fill="#000000" stroke="#000000" points="266.2154,-1584.7428 276.2475,-1588.1496 270.5296,-1579.2302 266.2154,-1584.7428"/>
</g>
<!-- 6 -->
<g id="Rnode6" class="node">
<title>6</title>
<ellipse fill="none" stroke="#000000" cx="621.9452" cy="-738" rx="39.7935" ry="18"/>
<text text-anchor="middle" x="621.9452" y="-734.3" font-family="Times,serif" font-size="14.00" fill="#000000">AWPP</text>
</g>
<!-- 7 -->
<g id="Rnode7" class="node">
<title>7</title>
<ellipse fill="none" stroke="#000000" cx="564.9452" cy="-810" rx="40.8928" ry="18"/>
<text text-anchor="middle" x="564.9452" y="-806.3" font-family="Times,serif" font-size="14.00" fill="#000000">A_0PP</text>
</g>
<!-- 6&#45;&gt;7 -->
<g id="edge22" class="edge">
<title>6&#45;&gt;7</title>
<path fill="none" stroke="#000000" d="M608.437,-755.063C601.4412,-763.8997 592.7607,-774.8646 584.999,-784.6689"/>
<polygon fill="#000000" stroke="#000000" points="582.2153,-782.5464 578.7524,-792.5593 587.7036,-786.8913 582.2153,-782.5464"/>
</g>
<!-- 29 -->
<g id="Rnode29" class="node">
<title>29</title>
<ellipse fill="none" stroke="#000000" cx="564.9452" cy="-882" rx="27" ry="18"/>
<text text-anchor="middle" x="564.9452" y="-878.3" font-family="Times,serif" font-size="14.00" fill="#000000">PP</text>
</g>
<!-- 7&#45;&gt;29 -->
<g id="edge55" class="edge">
<title>7&#45;&gt;29</title>
<path fill="none" stroke="#000000" d="M564.9452,-828.1686C564.9452,-835.869 564.9452,-845.0257 564.9452,-853.5834"/>
<polygon fill="#000000" stroke="#000000" points="561.4453,-853.5867 564.9452,-863.5867 568.4453,-853.5868 561.4453,-853.5867"/>
</g>
<!-- 8 -->
<g id="Rnode8" class="node">
<title>8</title>
<ellipse fill="none" stroke="#000000" cx="489.9452" cy="-234" rx="31.6951" ry="18"/>
<text text-anchor="middle" x="489.9452" y="-230.3" font-family="Times,serif" font-size="14.00" fill="#000000">BQP</text>
</g>
<!-- 8&#45;&gt;6 -->
<g id="edge64" class="edge">
<title>8&#45;&gt;6</title>
<path fill="none" stroke="#000000" d="M508.5995,-248.8154C519.7531,-258.7122 533.2167,-272.6894 540.9452,-288 614.4373,-433.5926 622.1382,-635.334 622.3141,-709.3251"/>
<polygon fill="#000000" stroke="#000000" points="618.8134,-709.6769 622.2896,-719.6852 625.8134,-709.6935 618.8134,-709.6769"/>
</g>
<!-- 9 -->
<g id="Rnode9" class="node">
<title>9</title>
<ellipse fill="none" stroke="#000000" cx="872.9452" cy="-306" rx="63.0888" ry="18"/>
<text text-anchor="middle" x="872.9452" y="-302.3" font-family="Times,serif" font-size="14.00" fill="#000000">BQP/mpoly</text>
</g>
<!-- 8&#45;&gt;9 -->
<g id="edge66" class="edge">
<title>8&#45;&gt;9</title>
<path fill="none" stroke="#000000" d="M520.9879,-238.6204C577.1077,-247.1442 699.0774,-266.4528 800.9452,-288 805.9383,-289.0561 811.1099,-290.2164 816.2853,-291.4232"/>
<polygon fill="#000000" stroke="#000000" points="815.6575,-294.8716 826.1966,-293.7863 817.281,-288.0624 815.6575,-294.8716"/>
</g>
<!-- 22 -->
<g id="Rnode22" class="node">
<title>22</title>
<ellipse fill="none" stroke="#000000" cx="224.9452" cy="-306" rx="50.0912" ry="18"/>
<text text-anchor="middle" x="224.9452" y="-302.3" font-family="Times,serif" font-size="14.00" fill="#000000">NIQSZK</text>
</g>
<!-- 8&#45;&gt;22 -->
<g id="edge65" class="edge">
<title>8&#45;&gt;22</title>
<path fill="none" stroke="#000000" d="M461.7491,-242.5003C451.4451,-245.559 439.6848,-248.9947 428.9452,-252 376.9583,-266.5477 317.2319,-282.2387 275.8989,-292.9372"/>
<polygon fill="#000000" stroke="#000000" points="274.8711,-289.5878 266.0647,-295.4783 276.6223,-296.3652 274.8711,-289.5878"/>
</g>
<!-- 35 -->
<g id="Rnode35" class="node">
<title>35</title>
<ellipse fill="none" stroke="#000000" cx="489.9452" cy="-306" rx="42.4939" ry="18"/>
<text text-anchor="middle" x="489.9452" y="-302.3" font-family="Times,serif" font-size="14.00" fill="#000000">QCMA</text>
</g>
<!-- 8&#45;&gt;35 -->
<g id="edge67" class="edge">
<title>8&#45;&gt;35</title>
<path fill="none" stroke="#000000" d="M489.9452,-252.1686C489.9452,-259.869 489.9452,-269.0257 489.9452,-277.5834"/>
<polygon fill="#000000" stroke="#000000" points="486.4453,-277.5867 489.9452,-287.5867 493.4453,-277.5868 486.4453,-277.5867"/>
</g>
<!-- 10 -->
<g id="Rnode10" class="node">
<title>10</title>
<ellipse fill="none" stroke="#000000" cx="843.9452" cy="-378" rx="59.5901" ry="18"/>
<text text-anchor="middle" x="843.9452" y="-374.3" font-family="Times,serif" font-size="14.00" fill="#000000">BQP/qpoly</text>
</g>
<!-- 9&#45;&gt;10 -->
<g id="edge87" class="edge">
<title>9&#45;&gt;10</title>
<path fill="none" stroke="#000000" d="M865.6273,-324.1686C862.4088,-332.1594 858.5587,-341.7181 855.002,-350.5486"/>
<polygon fill="#000000" stroke="#000000" points="851.65,-349.5031 851.1603,-360.0866 858.1431,-352.1184 851.65,-349.5031"/>
</g>
<!-- 36 -->
<g id="Rnode36" class="node">
<title>36</title>
<ellipse fill="none" stroke="#000000" cx="689.9452" cy="-450" rx="70.3881" ry="18"/>
<text text-anchor="middle" x="689.9452" y="-446.3" font-family="Times,serif" font-size="14.00" fill="#000000">QCMA/qpoly</text>
</g>
<!-- 10&#45;&gt;36 -->
<g id="edge37" class="edge">
<title>10&#45;&gt;36</title>
<path fill="none" stroke="#000000" d="M811.2858,-393.2693C788.5034,-403.9208 757.8652,-418.2452 733.0759,-429.835"/>
<polygon fill="#000000" stroke="#000000" points="731.4665,-426.7237 723.8901,-434.1297 734.4313,-433.0649 731.4665,-426.7237"/>
</g>
<!-- 11 -->
<g id="Rnode11" class="node">
<title>11</title>
<ellipse fill="none" stroke="#000000" cx="467.9452" cy="-1098" rx="27" ry="18"/>
<text text-anchor="middle" x="467.9452" y="-1094.3" font-family="Times,serif" font-size="14.00" fill="#000000">CH</text>
</g>
<!-- 31 -->
<g id="Rnode31" class="node">
<title>31</title>
<ellipse fill="none" stroke="#000000" cx="375.9452" cy="-1170" rx="50.0912" ry="18"/>
<text text-anchor="middle" x="375.9452" y="-1166.3" font-family="Times,serif" font-size="14.00" fill="#000000">PSPACE</text>
</g>
<!-- 11&#45;&gt;31 -->
<g id="edge17" class="edge">
<title>11&#45;&gt;31</title>
<path fill="none" stroke="#000000" d="M450.2067,-1111.8823C437.3422,-1121.9502 419.6629,-1135.7861 404.7815,-1147.4325"/>
<polygon fill="#000000" stroke="#000000" points="402.5682,-1144.7202 396.8502,-1153.6396 406.8824,-1150.2327 402.5682,-1144.7202"/>
</g>
<!-- 12 -->
<g id="Rnode12" class="node">
<title>12</title>
<ellipse fill="none" stroke="#000000" cx="381.9452" cy="-522" rx="52.7911" ry="18"/>
<text text-anchor="middle" x="381.9452" y="-518.3" font-family="Times,serif" font-size="14.00" fill="#000000">Delta_3P</text>
</g>
<!-- 28 -->
<g id="Rnode28" class="node">
<title>28</title>
<ellipse fill="none" stroke="#000000" cx="389.9452" cy="-594" rx="27" ry="18"/>
<text text-anchor="middle" x="389.9452" y="-590.3" font-family="Times,serif" font-size="14.00" fill="#000000">PH</text>
</g>
<!-- 12&#45;&gt;28 -->
<g id="edge86" class="edge">
<title>12&#45;&gt;28</title>
<path fill="none" stroke="#000000" d="M383.964,-540.1686C384.8196,-547.869 385.837,-557.0257 386.7878,-565.5834"/>
<polygon fill="#000000" stroke="#000000" points="383.3163,-566.0344 387.8993,-575.5867 390.2735,-565.2614 383.3163,-566.0344"/>
</g>
<!-- 13 -->
<g id="Rnode13" class="node">
<title>13</title>
<ellipse fill="none" stroke="#000000" cx="295.9452" cy="-1314" rx="30.5947" ry="18"/>
<text text-anchor="middle" x="295.9452" y="-1310.3" font-family="Times,serif" font-size="14.00" fill="#000000">EXP</text>
</g>
<!-- 19 -->
<g id="Rnode19" class="node">
<title>19</title>
<ellipse fill="none" stroke="#000000" cx="294.9452" cy="-1386" rx="38.9931" ry="18"/>
<text text-anchor="middle" x="294.9452" y="-1382.3" font-family="Times,serif" font-size="14.00" fill="#000000">NEXP</text>
</g>
<!-- 13&#45;&gt;19 -->
<g id="edge18" class="edge">
<title>13&#45;&gt;19</title>
<path fill="none" stroke="#000000" d="M295.6929,-1332.1686C295.5859,-1339.869 295.4587,-1349.0257 295.3399,-1357.5834"/>
<polygon fill="#000000" stroke="#000000" points="291.8403,-1357.5391 295.201,-1367.5867 298.8396,-1357.6363 291.8403,-1357.5391"/>
</g>
<!-- 14 -->
<g id="Rnode14" class="node">
<title>14</title>
<ellipse fill="none" stroke="#000000" cx="293.9452" cy="-1458" rx="53.0913" ry="18"/>
<text text-anchor="middle" x="293.9452" y="-1454.3" font-family="Times,serif" font-size="14.00" fill="#000000">EXP^NP</text>
</g>
<!-- 48 -->
<g id="Rnode48" class="node">
<title>48</title>
<ellipse fill="none" stroke="#000000" cx="293.9452" cy="-1530" rx="27" ry="18"/>
<text text-anchor="middle" x="293.9452" y="-1526.3" font-family="Times,serif" font-size="14.00" fill="#000000">RE</text>
</g>
<!-- 14&#45;&gt;48 -->
<g id="edge61" class="edge">
<title>14&#45;&gt;48</title>
<path fill="none" stroke="#000000" d="M293.9452,-1476.1686C293.9452,-1483.869 293.9452,-1493.0257 293.9452,-1501.5834"/>
<polygon fill="#000000" stroke="#000000" points="290.4453,-1501.5867 293.9452,-1511.5867 297.4453,-1501.5868 290.4453,-1501.5867"/>
</g>
<!-- 15 -->
<g id="Rnode15" class="node">
<title>15</title>
<ellipse fill="none" stroke="#000000" cx="295.9452" cy="-1242" rx="50.0912" ry="18"/>
<text text-anchor="middle" x="295.9452" y="-1238.3" font-family="Times,serif" font-size="14.00" fill="#000000">EXP_plo</text>
</g>
<!-- 15&#45;&gt;13 -->
<g id="edge53" class="edge">
<title>15&#45;&gt;13</title>
<path fill="none" stroke="#000000" d="M295.9452,-1260.1686C295.9452,-1267.869 295.9452,-1277.0257 295.9452,-1285.5834"/>
<polygon fill="#000000" stroke="#000000" points="292.4453,-1285.5867 295.9452,-1295.5867 299.4453,-1285.5868 292.4453,-1285.5867"/>
</g>
<!-- 21 -->
<g id="Rnode21" class="node">
<title>21</title>
<ellipse fill="none" stroke="#000000" cx="189.9452" cy="-1314" rx="57.6901" ry="18"/>
<text text-anchor="middle" x="189.9452" y="-1310.3" font-family="Times,serif" font-size="14.00" fill="#000000">NEXP_plo</text>
</g>
<!-- 15&#45;&gt;21 -->
<g id="edge54" class="edge">
<title>15&#45;&gt;21</title>
<path fill="none" stroke="#000000" d="M272.4204,-1257.9791C257.8049,-1267.9066 238.8046,-1280.8125 222.7253,-1291.7343"/>
<polygon fill="#000000" stroke="#000000" points="220.4448,-1289.0522 214.1392,-1297.5664 224.378,-1294.8427 220.4448,-1289.0522"/>
</g>
<!-- 16 -->
<g id="Rnode16" class="node">
<title>16</title>
<ellipse fill="none" stroke="#000000" cx="88.9452" cy="-1098" rx="27" ry="18"/>
<text text-anchor="middle" x="88.9452" y="-1094.3" font-family="Times,serif" font-size="14.00" fill="#000000">IP</text>
</g>
<!-- 17 -->
<g id="Rnode17" class="node">
<title>17</title>
<ellipse fill="none" stroke="#000000" cx="49.9452" cy="-1170" rx="30.5947" ry="18"/>
<text text-anchor="middle" x="49.9452" y="-1166.3" font-family="Times,serif" font-size="14.00" fill="#000000">MIP</text>
</g>
<!-- 16&#45;&gt;17 -->
<g id="edge2" class="edge">
<title>16&#45;&gt;17</title>
<path fill="none" stroke="#0000ff" d="M79.7028,-1115.063C75.1076,-1123.5463 69.4502,-1133.9908 64.3064,-1143.487"/>
<polygon fill="#0000ff" stroke="#0000ff" points="61.0776,-1142.0994 59.3922,-1152.5593 67.2327,-1145.4334 61.0776,-1142.0994"/>
</g>
<!-- 16&#45;&gt;31 -->
<g id="edge1" class="edge">
<title>16&#45;&gt;31</title>
<path fill="none" stroke="#000000" d="M114.4145,-1104.3895C161.4573,-1116.1912 262.7989,-1141.6149 324.6049,-1157.1202"/>
<polygon fill="#000000" stroke="#000000" points="323.9922,-1160.5749 334.5434,-1159.6135 325.6956,-1153.7853 323.9922,-1160.5749"/>
</g>
<!-- 37 -->
<g id="Rnode37" class="node">
<title>37</title>
<ellipse fill="none" stroke="#000000" cx="126.9452" cy="-1170" rx="28.6953" ry="18"/>
<text text-anchor="middle" x="126.9452" y="-1166.3" font-family="Times,serif" font-size="14.00" fill="#000000">QIP</text>
</g>
<!-- 16&#45;&gt;37 -->
<g id="edge3" class="edge">
<title>16&#45;&gt;37</title>
<path fill="none" stroke="#0000ff" d="M97.9507,-1115.063C102.428,-1123.5463 107.9404,-1133.9908 112.9523,-1143.487"/>
<polygon fill="#0000ff" stroke="#0000ff" points="109.9774,-1145.3491 117.7404,-1152.5593 116.1681,-1142.0818 109.9774,-1145.3491"/>
</g>
<!-- 44 -->
<g id="Rnode44" class="node">
<title>44</title>
<ellipse fill="none" stroke="#000000" cx="53.9452" cy="-1242" rx="53.8905" ry="18"/>
<text text-anchor="middle" x="53.9452" y="-1238.3" font-family="Times,serif" font-size="14.00" fill="#000000">QMIP_ne</text>
</g>
<!-- 17&#45;&gt;44 -->
<g id="edge60" class="edge">
<title>17&#45;&gt;44</title>
<path fill="none" stroke="#0000ff" d="M50.9546,-1188.1686C51.3824,-1195.869 51.8911,-1205.0257 52.3665,-1213.5834"/>
<polygon fill="#0000ff" stroke="#0000ff" points="48.8728,-1213.7963 52.9223,-1223.5867 55.8621,-1213.408 48.8728,-1213.7963"/>
</g>
<!-- 33 -->
<g id="Rnode33" class="node">
<title>33</title>
<ellipse fill="none" stroke="#000000" cx="503.9452" cy="-1026" rx="61.99" ry="18"/>
<text text-anchor="middle" x="503.9452" y="-1022.3" font-family="Times,serif" font-size="14.00" fill="#000000">P^Sharp&#45;P</text>
</g>
<!-- 18&#45;&gt;33 -->
<g id="edge7" class="edge">
<title>18&#45;&gt;33</title>
<path fill="none" stroke="#000000" d="M503.1976,-972.1686C503.3045,-979.869 503.4317,-989.0257 503.5505,-997.5834"/>
<polygon fill="#000000" stroke="#000000" points="500.0508,-997.6363 503.6895,-1007.5867 507.0502,-997.5391 500.0508,-997.6363"/>
</g>
<!-- 19&#45;&gt;14 -->
<g id="edge23" class="edge">
<title>19&#45;&gt;14</title>
<path fill="none" stroke="#000000" d="M294.6929,-1404.1686C294.5859,-1411.869 294.4587,-1421.0257 294.3399,-1429.5834"/>
<polygon fill="#000000" stroke="#000000" points="290.8403,-1429.5391 294.201,-1439.5867 297.8396,-1429.6363 290.8403,-1429.5391"/>
</g>
<!-- 20 -->
<g id="Rnode20" class="node">
<title>20</title>
<ellipse fill="none" stroke="#000000" cx="426.9452" cy="-1458" rx="61.99" ry="18"/>
<text text-anchor="middle" x="426.9452" y="-1454.3" font-family="Times,serif" font-size="14.00" fill="#000000">NEXP/poly</text>
</g>
<!-- 19&#45;&gt;20 -->
<g id="edge24" class="edge">
<title>19&#45;&gt;20</title>
<path fill="none" stroke="#000000" d="M320.3961,-1399.8823C339.6686,-1410.3946 366.4725,-1425.0149 388.3744,-1436.9614"/>
<polygon fill="#000000" stroke="#000000" points="386.9696,-1440.1819 397.4246,-1441.8978 390.3216,-1434.0366 386.9696,-1440.1819"/>
</g>
<!-- 20&#45;&gt;5 -->
<g id="edge82" class="edge">
<title>20&#45;&gt;5</title>
<path fill="none" stroke="#000000" d="M418.09,-1476.0445C399.4084,-1514.1128 355.8873,-1602.7972 334.0023,-1647.3932"/>
<polygon fill="#000000" stroke="#000000" points="330.8161,-1645.9412 329.5526,-1656.4604 337.1002,-1649.0251 330.8161,-1645.9412"/>
</g>
<!-- 21&#45;&gt;4 -->
<g id="edge48" class="edge">
<title>21&#45;&gt;4</title>
<path fill="none" stroke="#000000" d="M190.9477,-1332.0445C193.0344,-1369.6062 197.8589,-1456.4459 200.3669,-1501.5897"/>
<polygon fill="#000000" stroke="#000000" points="196.8878,-1502.0645 200.9372,-1511.8549 203.877,-1501.6762 196.8878,-1502.0645"/>
</g>
<!-- 21&#45;&gt;19 -->
<g id="edge49" class="edge">
<title>21&#45;&gt;19</title>
<path fill="none" stroke="#0000ff" d="M214.0343,-1330.5183C229.0535,-1340.8171 248.512,-1354.1601 264.5826,-1365.1799"/>
<polygon fill="#0000ff" stroke="#0000ff" points="262.8858,-1368.2602 273.1124,-1371.029 266.8445,-1362.4871 262.8858,-1368.2602"/>
</g>
<!-- 47 -->
<g id="Rnode47" class="node">
<title>47</title>
<ellipse fill="none" stroke="#000000" cx="164.9452" cy="-594" rx="38.1938" ry="18"/>
<text text-anchor="middle" x="164.9452" y="-590.3" font-family="Times,serif" font-size="14.00" fill="#000000">QSZK</text>
</g>
<!-- 22&#45;&gt;47 -->
<g id="edge19" class="edge">
<title>22&#45;&gt;47</title>
<path fill="none" stroke="#000000" d="M221.1919,-324.0157C211.0481,-372.7061 183.0277,-507.2039 170.7905,-565.9427"/>
<polygon fill="#000000" stroke="#000000" points="167.3103,-565.4874 168.6971,-575.9911 174.1631,-566.9152 167.3103,-565.4874"/>
</g>
<!-- 23 -->
<g id="Rnode23" class="node">
<title>23</title>
<ellipse fill="none" stroke="#000000" cx="209.9452" cy="-90" rx="42.4939" ry="18"/>
<text text-anchor="middle" x="209.9452" y="-86.3" font-family="Times,serif" font-size="14.00" fill="#000000">NISZK</text>
</g>
<!-- 23&#45;&gt;22 -->
<g id="edge16" class="edge">
<title>23&#45;&gt;22</title>
<path fill="none" stroke="#0000ff" d="M193.0407,-106.8333C184.3142,-116.7408 174.5523,-130.0403 169.9452,-144 164.9308,-159.1939 166.6758,-164.3376 169.9452,-180 177.4702,-216.049 195.9028,-254.413 209.3617,-279.2073"/>
<polygon fill="#0000ff" stroke="#0000ff" points="206.3335,-280.9636 214.2433,-288.0124 212.4556,-277.5694 206.3335,-280.9636"/>
</g>
<!-- 52 -->
<g id="Rnode52" class="node">
<title>52</title>
<ellipse fill="none" stroke="#000000" cx="209.9452" cy="-162" rx="30.5947" ry="18"/>
<text text-anchor="middle" x="209.9452" y="-158.3" font-family="Times,serif" font-size="14.00" fill="#000000">SZK</text>
</g>
<!-- 23&#45;&gt;52 -->
<g id="edge15" class="edge">
<title>23&#45;&gt;52</title>
<path fill="none" stroke="#000000" d="M209.9452,-108.1686C209.9452,-115.869 209.9452,-125.0257 209.9452,-133.5834"/>
<polygon fill="#000000" stroke="#000000" points="206.4453,-133.5867 209.9452,-143.5867 213.4453,-133.5868 206.4453,-133.5867"/>
</g>
<!-- 24 -->
<g id="Rnode24" class="node">
<title>24</title>
<ellipse fill="none" stroke="#000000" cx="392.9452" cy="-234" rx="27" ry="18"/>
<text text-anchor="middle" x="392.9452" y="-230.3" font-family="Times,serif" font-size="14.00" fill="#000000">NP</text>
</g>
<!-- 24&#45;&gt;1 -->
<g id="edge36" class="edge">
<title>24&#45;&gt;1</title>
<path fill="none" stroke="#00ff00" d="M417.0589,-242.2789C426.8889,-245.5153 438.4017,-249.1306 448.9452,-252 503.021,-266.7166 564.7006,-280.482 612.1237,-290.4313"/>
<polygon fill="#00ff00" stroke="#00ff00" points="611.515,-293.8796 622.019,-292.4954 612.9444,-287.0271 611.515,-293.8796"/>
</g>
<!-- 24&#45;&gt;16 -->
<g id="edge34" class="edge">
<title>24&#45;&gt;16</title>
<path fill="none" stroke="#0000ff" d="M366.0867,-236.9626C312.3912,-243.4156 194.495,-260.4148 165.9452,-288 64.5224,-385.9959 81.9452,-452.9689 81.9452,-594 81.9452,-594 81.9452,-594 81.9452,-954 81.9452,-994.1714 84.6966,-1040.5722 86.7494,-1069.6021"/>
<polygon fill="#0000ff" stroke="#0000ff" points="83.277,-1070.1093 87.4948,-1079.8284 90.2585,-1069.6004 83.277,-1070.1093"/>
</g>
<!-- 34 -->
<g id="Rnode34" class="node">
<title>34</title>
<ellipse fill="none" stroke="#000000" cx="378.9452" cy="-306" rx="50.0912" ry="18"/>
<text text-anchor="middle" x="378.9452" y="-302.3" font-family="Times,serif" font-size="14.00" fill="#000000">PostBPP</text>
</g>
<!-- 24&#45;&gt;34 -->
<g id="edge33" class="edge">
<title>24&#45;&gt;34</title>
<path fill="none" stroke="#000000" d="M389.4124,-252.1686C387.9151,-259.869 386.1347,-269.0257 384.4707,-277.5834"/>
<polygon fill="#000000" stroke="#000000" points="380.9987,-277.1025 382.5256,-287.5867 387.87,-278.4386 380.9987,-277.1025"/>
</g>
<!-- 24&#45;&gt;35 -->
<g id="edge35" class="edge">
<title>24&#45;&gt;35</title>
<path fill="none" stroke="#0000ff" d="M411.1902,-247.5426C425.1168,-257.88 444.5849,-272.3305 460.6803,-284.2776"/>
<polygon fill="#0000ff" stroke="#0000ff" points="458.6267,-287.112 468.7425,-290.2619 462.7988,-281.4912 458.6267,-287.112"/>
</g>
<!-- 25&#45;&gt;36 -->
<g id="edge71" class="edge">
<title>25&#45;&gt;36</title>
<path fill="none" stroke="#0000ff" d="M689.9452,-396.1686C689.9452,-403.869 689.9452,-413.0257 689.9452,-421.5834"/>
<polygon fill="#0000ff" stroke="#0000ff" points="686.4453,-421.5867 689.9452,-431.5867 693.4453,-421.5868 686.4453,-421.5867"/>
</g>
<!-- 26 -->
<g id="Rnode26" class="node">
<title>26</title>
<ellipse fill="none" stroke="#000000" cx="455.9452" cy="-18" rx="27" ry="18"/>
<text text-anchor="middle" x="455.9452" y="-14.3" font-family="Times,serif" font-size="14.00" fill="#000000">P</text>
</g>
<!-- 26&#45;&gt;8 -->
<g id="edge79" class="edge">
<title>26&#45;&gt;8</title>
<path fill="none" stroke="#000000" d="M458.7856,-36.0445C464.7105,-73.6856 478.4251,-160.8133 485.5182,-205.8754"/>
<polygon fill="#000000" stroke="#000000" points="482.0766,-206.5208 487.089,-215.8549 488.9915,-205.4323 482.0766,-206.5208"/>
</g>
<!-- 26&#45;&gt;23 -->
<g id="edge78" class="edge">
<title>26&#45;&gt;23</title>
<path fill="none" stroke="#000000" d="M431.0036,-25.3C389.6638,-37.3994 306.3879,-61.7729 254.6792,-76.9071"/>
<polygon fill="#000000" stroke="#000000" points="253.3943,-73.6363 244.7801,-79.8044 255.3606,-80.3545 253.3943,-73.6363"/>
</g>
<!-- 27 -->
<g id="Rnode27" class="node">
<title>27</title>
<ellipse fill="none" stroke="#000000" cx="689.9452" cy="-234" rx="39.7935" ry="18"/>
<text text-anchor="middle" x="689.9452" y="-230.3" font-family="Times,serif" font-size="14.00" fill="#000000">P/poly</text>
</g>
<!-- 26&#45;&gt;27 -->
<g id="edge81" class="edge">
<title>26&#45;&gt;27</title>
<path fill="none" stroke="#000000" d="M472.029,-32.8466C512.0338,-69.774 616.2736,-165.9955 664.6282,-210.6305"/>
<polygon fill="#000000" stroke="#000000" points="662.4416,-213.3752 672.1636,-217.5862 667.1895,-208.2316 662.4416,-213.3752"/>
</g>
<!-- 55 -->
<g id="Rnode55" class="node">
<title>55</title>
<ellipse fill="none" stroke="#000000" cx="399.9452" cy="-162" rx="27" ry="18"/>
<text text-anchor="middle" x="399.9452" y="-158.3" font-family="Times,serif" font-size="14.00" fill="#000000">UP</text>
</g>
<!-- 26&#45;&gt;55 -->
<g id="edge80" class="edge">
<title>26&#45;&gt;55</title>
<path fill="none" stroke="#000000" d="M449.0785,-35.6572C439.4642,-60.3798 421.9022,-105.5392 410.5867,-134.6361"/>
<polygon fill="#000000" stroke="#000000" points="407.2306,-133.6097 406.8681,-144.1983 413.7546,-136.1469 407.2306,-133.6097"/>
</g>
<!-- 27&#45;&gt;1 -->
<g id="edge76" class="edge">
<title>27&#45;&gt;1</title>
<path fill="none" stroke="#000000" d="M689.9452,-252.1686C689.9452,-259.869 689.9452,-269.0257 689.9452,-277.5834"/>
<polygon fill="#000000" stroke="#000000" points="686.4453,-277.5867 689.9452,-287.5867 693.4453,-277.5868 686.4453,-277.5867"/>
</g>
<!-- 27&#45;&gt;9 -->
<g id="edge75" class="edge">
<title>27&#45;&gt;9</title>
<path fill="none" stroke="#000000" d="M720.1639,-245.8893C748.9918,-257.2315 792.8394,-274.483 826.1783,-287.5999"/>
<polygon fill="#000000" stroke="#000000" points="825.1323,-290.9495 835.7195,-291.3538 827.6952,-284.4355 825.1323,-290.9495"/>
</g>
<!-- 51 -->
<g id="Rnode51" class="node">
<title>51</title>
<ellipse fill="none" stroke="#000000" cx="536.9452" cy="-666" rx="29.795" ry="18"/>
<text text-anchor="middle" x="536.9452" y="-662.3" font-family="Times,serif" font-size="14.00" fill="#000000">SPP</text>
</g>
<!-- 28&#45;&gt;51 -->
<g id="edge72" class="edge">
<title>28&#45;&gt;51</title>
<path fill="none" stroke="#000000" d="M411.9526,-604.7791C436.4188,-616.7626 476.1826,-636.2387 504.2815,-650.0015"/>
<polygon fill="#000000" stroke="#000000" points="502.8044,-653.1752 513.3246,-654.4307 505.8835,-646.8888 502.8044,-653.1752"/>
</g>
<!-- 29&#45;&gt;18 -->
<g id="edge32" class="edge">
<title>29&#45;&gt;18</title>
<path fill="none" stroke="#000000" d="M551.4921,-897.6229C543.3186,-907.1148 532.7184,-919.4247 523.5092,-930.1192"/>
<polygon fill="#000000" stroke="#000000" points="520.6744,-928.0475 516.8013,-937.909 525.9788,-932.6152 520.6744,-928.0475"/>
</g>
<!-- 30 -->
<g id="Rnode30" class="node">
<title>30</title>
<ellipse fill="none" stroke="#000000" cx="593.9452" cy="-954" rx="46.2923" ry="18"/>
<text text-anchor="middle" x="593.9452" y="-950.3" font-family="Times,serif" font-size="14.00" fill="#000000">PP/poly</text>
</g>
<!-- 29&#45;&gt;30 -->
<g id="edge31" class="edge">
<title>29&#45;&gt;30</title>
<path fill="none" stroke="#000000" d="M571.9653,-899.4292C575.2398,-907.5591 579.2152,-917.429 582.88,-926.5278"/>
<polygon fill="#000000" stroke="#000000" points="579.7042,-928.0112 586.6869,-935.9794 586.1973,-925.3959 579.7042,-928.0112"/>
</g>
<!-- 32 -->
<g id="Rnode32" class="node">
<title>32</title>
<ellipse fill="none" stroke="#000000" cx="514.9452" cy="-1242" rx="72.2875" ry="18"/>
<text text-anchor="middle" x="514.9452" y="-1238.3" font-family="Times,serif" font-size="14.00" fill="#000000">PSPACE/poly</text>
</g>
<!-- 30&#45;&gt;32 -->
<g id="edge10" class="edge">
<title>30&#45;&gt;32</title>
<path fill="none" stroke="#000000" d="M590.6123,-972.0354C587.1294,-990.2817 581.295,-1019.2505 574.9452,-1044 559.2388,-1105.2186 536.7779,-1175.8224 524.2678,-1213.9887"/>
<polygon fill="#000000" stroke="#000000" points="520.8211,-1213.2656 521.017,-1223.8586 527.4697,-1215.4555 520.8211,-1213.2656"/>
</g>
<!-- 31&#45;&gt;15 -->
<g id="edge21" class="edge">
<title>31&#45;&gt;15</title>
<path fill="none" stroke="#000000" d="M356.9863,-1187.063C346.6248,-1196.3884 333.63,-1208.0837 322.2963,-1218.284"/>
<polygon fill="#000000" stroke="#000000" points="319.8596,-1215.7683 314.768,-1225.0595 324.5424,-1220.9713 319.8596,-1215.7683"/>
</g>
<!-- 31&#45;&gt;32 -->
<g id="edge20" class="edge">
<title>31&#45;&gt;32</title>
<path fill="none" stroke="#000000" d="M404.7461,-1184.9184C424.8745,-1195.3446 452.035,-1209.4134 474.3548,-1220.9747"/>
<polygon fill="#000000" stroke="#000000" points="472.7842,-1224.1029 483.2735,-1225.5945 476.0039,-1217.8872 472.7842,-1224.1029"/>
</g>
<!-- 32&#45;&gt;20 -->
<g id="edge52" class="edge">
<title>32&#45;&gt;20</title>
<path fill="none" stroke="#000000" d="M507.5937,-1260.0445C492.1938,-1297.8444 456.4621,-1385.5494 438.1719,-1430.4436"/>
<polygon fill="#000000" stroke="#000000" points="434.8694,-1429.2734 434.3376,-1439.8549 441.352,-1431.9146 434.8694,-1429.2734"/>
</g>
<!-- 33&#45;&gt;11 -->
<g id="edge73" class="edge">
<title>33&#45;&gt;11</title>
<path fill="none" stroke="#000000" d="M494.8609,-1044.1686C490.7178,-1052.4549 485.7316,-1062.4273 481.1826,-1071.5252"/>
<polygon fill="#000000" stroke="#000000" points="477.9958,-1070.0727 476.6541,-1080.5823 484.2568,-1073.2033 477.9958,-1070.0727"/>
</g>
<!-- 53 -->
<g id="Rnode53" class="node">
<title>53</title>
<ellipse fill="none" stroke="#000000" cx="377.9452" cy="-378" rx="34.394" ry="18"/>
<text text-anchor="middle" x="377.9452" y="-374.3" font-family="Times,serif" font-size="14.00" fill="#000000">S_2P</text>
</g>
<!-- 34&#45;&gt;53 -->
<g id="edge4" class="edge">
<title>34&#45;&gt;53</title>
<path fill="none" stroke="#000000" d="M378.6929,-324.1686C378.5859,-331.869 378.4587,-341.0257 378.3399,-349.5834"/>
<polygon fill="#000000" stroke="#000000" points="374.8403,-349.5391 378.201,-359.5867 381.8396,-349.6363 374.8403,-349.5391"/>
</g>
<!-- 35&#45;&gt;36 -->
<g id="edge69" class="edge">
<title>35&#45;&gt;36</title>
<path fill="none" stroke="#0000ff" d="M511.7294,-321.6846C547.0793,-347.1366 617.0977,-397.5498 658.0592,-427.0421"/>
<polygon fill="#0000ff" stroke="#0000ff" points="656.1756,-429.9987 666.336,-433.0014 660.2657,-424.3179 656.1756,-429.9987"/>
</g>
<!-- 39 -->
<g id="Rnode39" class="node">
<title>39</title>
<ellipse fill="none" stroke="#000000" cx="457.9452" cy="-738" rx="34.394" ry="18"/>
<text text-anchor="middle" x="457.9452" y="-734.3" font-family="Times,serif" font-size="14.00" fill="#000000">QMA</text>
</g>
<!-- 35&#45;&gt;39 -->
<g id="edge70" class="edge">
<title>35&#45;&gt;39</title>
<path fill="none" stroke="#0000ff" d="M488.611,-324.0125C483.63,-391.2553 466.0992,-627.9208 460.031,-709.8415"/>
<polygon fill="#0000ff" stroke="#0000ff" points="456.5335,-709.6793 459.2852,-719.9106 463.5144,-710.1965 456.5335,-709.6793"/>
</g>
<!-- 41 -->
<g id="Rnode41" class="node">
<title>41</title>
<ellipse fill="none" stroke="#000000" cx="689.9452" cy="-810" rx="65.7887" ry="18"/>
<text text-anchor="middle" x="689.9452" y="-806.3" font-family="Times,serif" font-size="14.00" fill="#000000">QMA/mpoly</text>
</g>
<!-- 36&#45;&gt;41 -->
<g id="edge68" class="edge">
<title>36&#45;&gt;41</title>
<path fill="none" stroke="#0000ff" d="M689.9452,-468.1854C689.9452,-495.5017 689.9452,-548.75 689.9452,-594 689.9452,-594 689.9452,-594 689.9452,-666 689.9452,-706.124 689.9452,-752.5369 689.9452,-781.5823"/>
<polygon fill="#0000ff" stroke="#0000ff" points="686.4453,-781.8146 689.9452,-791.8146 693.4453,-781.8147 686.4453,-781.8146"/>
</g>
<!-- 37&#45;&gt;15 -->
<g id="edge27" class="edge">
<title>37&#45;&gt;15</title>
<path fill="none" stroke="#000000" d="M149.7652,-1181.0423C154.7464,-1183.3873 160.0055,-1185.8137 164.9452,-1188 193.9674,-1200.8452 227.0094,-1214.4586 252.6482,-1224.8033"/>
<polygon fill="#000000" stroke="#000000" points="251.5044,-1228.1157 262.0882,-1228.5995 254.1162,-1221.6212 251.5044,-1228.1157"/>
</g>
<!-- 43 -->
<g id="Rnode43" class="node">
<title>43</title>
<ellipse fill="none" stroke="#000000" cx="176.9452" cy="-1242" rx="51.1914" ry="18"/>
<text text-anchor="middle" x="176.9452" y="-1238.3" font-family="Times,serif" font-size="14.00" fill="#000000">QMIP_le</text>
</g>
<!-- 37&#45;&gt;43 -->
<g id="edge28" class="edge">
<title>37&#45;&gt;43</title>
<path fill="none" stroke="#0000ff" d="M138.5419,-1186.6992C144.6109,-1195.4386 152.1762,-1206.3326 158.9835,-1216.1351"/>
<polygon fill="#0000ff" stroke="#0000ff" points="156.135,-1218.1695 164.7138,-1224.3868 161.8846,-1214.1767 156.135,-1218.1695"/>
</g>
<!-- 37&#45;&gt;44 -->
<g id="edge29" class="edge">
<title>37&#45;&gt;44</title>
<path fill="none" stroke="#0000ff" d="M111.4638,-1185.2693C101.9423,-1194.6604 89.5262,-1206.9064 78.6676,-1217.6162"/>
<polygon fill="#0000ff" stroke="#0000ff" points="76.1157,-1215.2173 71.4537,-1224.7313 81.0312,-1220.201 76.1157,-1215.2173"/>
</g>
<!-- 38 -->
<g id="Rnode38" class="node">
<title>38</title>
<ellipse fill="none" stroke="#000000" cx="151.9452" cy="-810" rx="41.6928" ry="18"/>
<text text-anchor="middle" x="151.9452" y="-806.3" font-family="Times,serif" font-size="14.00" fill="#000000">QIP(2)</text>
</g>
<!-- 38&#45;&gt;37 -->
<g id="edge74" class="edge">
<title>38&#45;&gt;37</title>
<path fill="none" stroke="#0000ff" d="M151.1164,-828.1809C149.9448,-855.4915 147.9452,-908.7325 147.9452,-954 147.9452,-954 147.9452,-954 147.9452,-1026 147.9452,-1066.7271 139.6183,-1113.2616 133.4513,-1142.1405"/>
<polygon fill="#0000ff" stroke="#0000ff" points="130.0263,-1141.4194 131.2964,-1151.9379 136.8629,-1142.9232 130.0263,-1141.4194"/>
</g>
<!-- 39&#45;&gt;7 -->
<g id="edge42" class="edge">
<title>39&#45;&gt;7</title>
<path fill="none" stroke="#0000ff" d="M479.085,-752.2249C494.6442,-762.6946 516.0525,-777.1002 533.5993,-788.9074"/>
<polygon fill="#0000ff" stroke="#0000ff" points="532.1212,-792.1314 542.3718,-794.8104 536.0292,-786.3238 532.1212,-792.1314"/>
</g>
<!-- 39&#45;&gt;38 -->
<g id="edge44" class="edge">
<title>39&#45;&gt;38</title>
<path fill="none" stroke="#0000ff" d="M426.3504,-745.4341C372.2522,-758.1631 261.6373,-784.1901 198.6207,-799.0175"/>
<polygon fill="#0000ff" stroke="#0000ff" points="197.4893,-795.6881 188.5568,-801.3855 199.0926,-802.502 197.4893,-795.6881"/>
</g>
<!-- 40 -->
<g id="Rnode40" class="node">
<title>40</title>
<ellipse fill="none" stroke="#000000" cx="220.9452" cy="-1170" rx="47.3916" ry="18"/>
<text text-anchor="middle" x="220.9452" y="-1166.3" font-family="Times,serif" font-size="14.00" fill="#000000">QMA(2)</text>
</g>
<!-- 39&#45;&gt;40 -->
<g id="edge43" class="edge">
<title>39&#45;&gt;40</title>
<path fill="none" stroke="#0000ff" d="M457.6288,-756.3172C456.4845,-787.2292 451.462,-851.1557 429.9452,-900 384.5392,-1003.0744 291.4,-1101.8811 246.3981,-1145.9728"/>
<polygon fill="#0000ff" stroke="#0000ff" points="243.8281,-1143.5897 239.0897,-1153.066 248.7033,-1148.6129 243.8281,-1143.5897"/>
</g>
<!-- 39&#45;&gt;41 -->
<g id="edge45" class="edge">
<title>39&#45;&gt;41</title>
<path fill="none" stroke="#0000ff" d="M484.5924,-749.7288C489.9622,-751.9293 495.5995,-754.1248 500.9452,-756 544.1032,-771.139 593.8739,-785.227 631.5045,-795.2152"/>
<polygon fill="#0000ff" stroke="#0000ff" points="630.7268,-798.6297 641.2885,-797.7925 632.51,-791.8606 630.7268,-798.6297"/>
</g>
<!-- 45 -->
<g id="Rnode45" class="node">
<title>45</title>
<ellipse fill="none" stroke="#000000" cx="384.9452" cy="-810" rx="45.4919" ry="18"/>
<text text-anchor="middle" x="384.9452" y="-806.3" font-family="Times,serif" font-size="14.00" fill="#000000">QRG(1)</text>
</g>
<!-- 39&#45;&gt;45 -->
<g id="edge41" class="edge">
<title>39&#45;&gt;45</title>
<path fill="none" stroke="#000000" d="M441.7441,-753.9791C432.28,-763.3137 420.146,-775.2814 409.5248,-785.7571"/>
<polygon fill="#000000" stroke="#000000" points="406.7801,-783.5483 402.1181,-793.0623 411.6956,-788.5321 406.7801,-783.5483"/>
</g>
<!-- 40&#45;&gt;15 -->
<g id="edge11" class="edge">
<title>40&#45;&gt;15</title>
<path fill="none" stroke="#000000" d="M238.7192,-1187.063C248.3397,-1196.2987 260.3817,-1207.859 270.9342,-1217.9894"/>
<polygon fill="#000000" stroke="#000000" points="268.6611,-1220.659 278.2988,-1225.0595 273.5088,-1215.6093 268.6611,-1220.659"/>
</g>
<!-- 40&#45;&gt;44 -->
<g id="edge12" class="edge">
<title>40&#45;&gt;44</title>
<path fill="none" stroke="#0000ff" d="M189.5338,-1183.5426C163.3034,-1194.8516 125.6548,-1211.0833 96.6822,-1223.5745"/>
<polygon fill="#0000ff" stroke="#0000ff" points="95.0156,-1220.4815 87.2184,-1227.6547 97.787,-1226.9095 95.0156,-1220.4815"/>
</g>
<!-- 41&#45;&gt;30 -->
<g id="edge50" class="edge">
<title>41&#45;&gt;30</title>
<path fill="none" stroke="#000000" d="M677.9809,-827.9465C661.2182,-853.0904 630.6383,-898.9604 611.3533,-927.8878"/>
<polygon fill="#000000" stroke="#000000" points="608.3936,-926.0177 605.7588,-936.2796 614.218,-929.9006 608.3936,-926.0177"/>
</g>
<!-- 42 -->
<g id="Rnode42" class="node">
<title>42</title>
<ellipse fill="none" stroke="#000000" cx="688.9452" cy="-1026" rx="63.0888" ry="18"/>
<text text-anchor="middle" x="688.9452" y="-1022.3" font-family="Times,serif" font-size="14.00" fill="#000000">QMA/qpoly</text>
</g>
<!-- 41&#45;&gt;42 -->
<g id="edge51" class="edge">
<title>41&#45;&gt;42</title>
<path fill="none" stroke="#0000ff" d="M689.8617,-828.0445C689.6878,-865.6062 689.2857,-952.4459 689.0767,-997.5897"/>
<polygon fill="#0000ff" stroke="#0000ff" points="685.5756,-997.8388 689.0292,-1007.8549 692.5756,-997.8713 685.5756,-997.8388"/>
</g>
<!-- 42&#45;&gt;32 -->
<g id="edge59" class="edge">
<title>42&#45;&gt;32</title>
<path fill="none" stroke="#000000" d="M683.7267,-1044.0683C673.6562,-1076.3113 648.8524,-1144.4563 607.9452,-1188 595.0149,-1201.7637 577.7839,-1213.0811 561.6694,-1221.7366"/>
<polygon fill="#000000" stroke="#000000" points="559.6468,-1218.8408 552.3513,-1226.5236 562.8456,-1225.0672 559.6468,-1218.8408"/>
</g>
<!-- 43&#45;&gt;21 -->
<g id="edge30" class="edge">
<title>43&#45;&gt;21</title>
<path fill="none" stroke="#0000ff" d="M180.2257,-1260.1686C181.616,-1267.869 183.2693,-1277.0257 184.8144,-1285.5834"/>
<polygon fill="#0000ff" stroke="#0000ff" points="181.3994,-1286.3678 186.6206,-1295.5867 188.288,-1285.1239 181.3994,-1286.3678"/>
</g>
<!-- 44&#45;&gt;21 -->
<g id="edge40" class="edge">
<title>44&#45;&gt;21</title>
<path fill="none" stroke="#0000ff" d="M82.7873,-1257.2693C102.7091,-1267.8162 129.433,-1281.9641 151.2091,-1293.4926"/>
<polygon fill="#0000ff" stroke="#0000ff" points="149.729,-1296.6693 160.2045,-1298.2549 153.0042,-1290.4827 149.729,-1296.6693"/>
</g>
<!-- 46 -->
<g id="Rnode46" class="node">
<title>46</title>
<ellipse fill="none" stroke="#000000" cx="375.9452" cy="-882" rx="45.4919" ry="18"/>
<text text-anchor="middle" x="375.9452" y="-878.3" font-family="Times,serif" font-size="14.00" fill="#000000">QRG(2)</text>
</g>
<!-- 45&#45;&gt;46 -->
<g id="edge58" class="edge">
<title>45&#45;&gt;46</title>
<path fill="none" stroke="#000000" d="M382.6741,-828.1686C381.7116,-835.869 380.567,-845.0257 379.4973,-853.5834"/>
<polygon fill="#000000" stroke="#000000" points="376.0143,-853.2298 378.2469,-863.5867 382.9603,-854.0981 376.0143,-853.2298"/>
</g>
<!-- 46&#45;&gt;31 -->
<g id="edge57" class="edge">
<title>46&#45;&gt;31</title>
<path fill="none" stroke="#000000" d="M375.9452,-900.0157C375.9452,-948.7061 375.9452,-1083.2039 375.9452,-1141.9427"/>
<polygon fill="#000000" stroke="#000000" points="372.4453,-1141.9911 375.9452,-1151.9911 379.4453,-1141.9912 372.4453,-1141.9911"/>
</g>
<!-- 47&#45;&gt;31 -->
<g id="edge13" class="edge">
<title>47&#45;&gt;31</title>
<path fill="none" stroke="#000000" d="M171.0452,-611.9507C185.7497,-656.8759 221.9452,-778.0215 221.9452,-882 221.9452,-882 221.9452,-882 221.9452,-1026 221.9452,-1087.2974 287.8441,-1130.0189 333.4261,-1152.2373"/>
<polygon fill="#000000" stroke="#000000" points="331.9925,-1155.431 342.5295,-1156.5369 334.982,-1149.1014 331.9925,-1155.431"/>
</g>
<!-- 47&#45;&gt;38 -->
<g id="edge14" class="edge">
<title>47&#45;&gt;38</title>
<path fill="none" stroke="#000000" d="M163.8592,-612.0445C161.5985,-649.6062 156.3721,-736.4459 153.6551,-781.5897"/>
<polygon fill="#000000" stroke="#000000" points="150.1445,-781.6627 153.0373,-791.8549 157.1318,-782.0833 150.1445,-781.6627"/>
</g>
<!-- 48&#45;&gt;3 -->
<g id="edge26" class="edge">
<title>48&#45;&gt;3</title>
<path fill="none" stroke="#000000" d="M293.9452,-1548.1686C293.9452,-1555.869 293.9452,-1565.0257 293.9452,-1573.5834"/>
<polygon fill="#000000" stroke="#000000" points="290.4453,-1573.5867 293.9452,-1583.5867 297.4453,-1573.5868 290.4453,-1573.5867"/>
</g>
<!-- 49 -->
<g id="Rnode49" class="node">
<title>49</title>
<ellipse fill="none" stroke="#000000" cx="264.9452" cy="-450" rx="37.8943" ry="18"/>
<text text-anchor="middle" x="264.9452" y="-446.3" font-family="Times,serif" font-size="14.00" fill="#000000">RG(2)</text>
</g>
<!-- 49&#45;&gt;46 -->
<g id="edge38" class="edge">
<title>49&#45;&gt;46</title>
<path fill="none" stroke="#000000" d="M249.2668,-466.5082C240.874,-476.5109 231.374,-490.0109 226.9452,-504 222.1161,-519.2538 224.1868,-524.2396 226.9452,-540 250.4076,-674.0523 263.2494,-709.9417 330.9452,-828 336.8943,-838.3748 344.8831,-848.7199 352.4782,-857.5376"/>
<polygon fill="#000000" stroke="#000000" points="350.0071,-860.0254 359.2728,-865.1631 355.2334,-855.3685 350.0071,-860.0254"/>
</g>
<!-- 50 -->
<g id="Rnode50" class="node">
<title>50</title>
<ellipse fill="none" stroke="#000000" cx="273.9452" cy="-522" rx="37.8943" ry="18"/>
<text text-anchor="middle" x="273.9452" y="-518.3" font-family="Times,serif" font-size="14.00" fill="#000000">RG(3)</text>
</g>
<!-- 49&#45;&gt;50 -->
<g id="edge39" class="edge">
<title>49&#45;&gt;50</title>
<path fill="none" stroke="#000000" d="M267.2163,-468.1686C268.1788,-475.869 269.3234,-485.0257 270.3931,-493.5834"/>
<polygon fill="#000000" stroke="#000000" points="266.9301,-494.0981 271.6436,-503.5867 273.8761,-493.2298 266.9301,-494.0981"/>
</g>
<!-- 50&#45;&gt;15 -->
<g id="edge56" class="edge">
<title>50&#45;&gt;15</title>
<path fill="none" stroke="#000000" d="M273.9452,-540.1854C273.9452,-567.5017 273.9452,-620.75 273.9452,-666 273.9452,-666 273.9452,-666 273.9452,-810 273.9452,-962.547 287.7969,-1145.0026 293.518,-1213.8556"/>
<polygon fill="#000000" stroke="#000000" points="290.0376,-1214.2371 294.363,-1223.9087 297.013,-1213.6507 290.0376,-1214.2371"/>
</g>
<!-- 51&#45;&gt;2 -->
<g id="edge63" class="edge">
<title>51&#45;&gt;2</title>
<path fill="none" stroke="#000000" d="M536.9452,-684.1686C536.9452,-691.869 536.9452,-701.0257 536.9452,-709.5834"/>
<polygon fill="#000000" stroke="#000000" points="533.4453,-709.5867 536.9452,-719.5867 540.4453,-709.5868 533.4453,-709.5867"/>
</g>
<!-- 51&#45;&gt;6 -->
<g id="edge62" class="edge">
<title>51&#45;&gt;6</title>
<path fill="none" stroke="#000000" d="M554.5573,-680.9184C566.3159,-690.8787 581.999,-704.1632 595.2767,-715.4102"/>
<polygon fill="#000000" stroke="#000000" points="593.2838,-718.309 603.1765,-722.1018 597.8082,-712.9676 593.2838,-718.309"/>
</g>
<!-- 52&#45;&gt;24 -->
<g id="edge5" class="edge">
<title>52&#45;&gt;24</title>
<path fill="none" stroke="#000000" d="M235.3906,-172.0113C267.8873,-184.7969 324.1858,-206.9471 359.9486,-221.0177"/>
<polygon fill="#000000" stroke="#000000" points="358.867,-224.3533 369.4541,-224.7576 361.4299,-217.8393 358.867,-224.3533"/>
</g>
<!-- 52&#45;&gt;47 -->
<g id="edge6" class="edge">
<title>52&#45;&gt;47</title>
<path fill="none" stroke="#000000" d="M190.4714,-176.4313C161.122,-200.0043 108.9452,-249.8132 108.9452,-306 108.9452,-306 108.9452,-306 108.9452,-378 108.9452,-447.8194 136.7005,-526.3878 153.1311,-566.7818"/>
<polygon fill="#000000" stroke="#000000" points="149.9742,-568.3063 157.0406,-576.2004 156.4394,-565.6227 149.9742,-568.3063"/>
</g>
<!-- 53&#45;&gt;45 -->
<g id="edge83" class="edge">
<title>53&#45;&gt;45</title>
<path fill="none" stroke="#000000" d="M402.5046,-390.6825C417.5004,-399.9095 435.3864,-413.9387 443.9452,-432 473.5552,-494.4843 415.9743,-705.3666 393.4425,-781.9286"/>
<polygon fill="#000000" stroke="#000000" points="389.9995,-781.2283 390.5086,-791.8109 396.71,-783.2207 389.9995,-781.2283"/>
</g>
<!-- 53&#45;&gt;49 -->
<g id="edge84" class="edge">
<title>53&#45;&gt;49</title>
<path fill="none" stroke="#000000" d="M355.8894,-392.0532C338.9225,-402.864 315.2543,-417.9447 296.3164,-430.0113"/>
<polygon fill="#000000" stroke="#000000" points="294.2728,-427.1632 287.72,-435.4886 298.0344,-433.0667 294.2728,-427.1632"/>
</g>
<!-- 54 -->
<g id="Rnode54" class="node">
<title>54</title>
<ellipse fill="none" stroke="#000000" cx="377.9452" cy="-450" rx="57.3905" ry="18"/>
<text text-anchor="middle" x="377.9452" y="-446.3" font-family="Times,serif" font-size="14.00" fill="#000000">Sigma_2P</text>
</g>
<!-- 53&#45;&gt;54 -->
<g id="edge85" class="edge">
<title>53&#45;&gt;54</title>
<path fill="none" stroke="#000000" d="M377.9452,-396.1686C377.9452,-403.869 377.9452,-413.0257 377.9452,-421.5834"/>
<polygon fill="#000000" stroke="#000000" points="374.4453,-421.5867 377.9452,-431.5867 381.4453,-421.5868 374.4453,-421.5867"/>
</g>
<!-- 54&#45;&gt;12 -->
<g id="edge8" class="edge">
<title>54&#45;&gt;12</title>
<path fill="none" stroke="#000000" d="M378.9546,-468.1686C379.3824,-475.869 379.8911,-485.0257 380.3665,-493.5834"/>
<polygon fill="#000000" stroke="#000000" points="376.8728,-493.7963 380.9223,-503.5867 383.8621,-493.408 376.8728,-493.7963"/>
</g>
<!-- 54&#45;&gt;50 -->
<g id="edge9" class="edge">
<title>54&#45;&gt;50</title>
<path fill="none" stroke="#000000" d="M354.0855,-466.5183C339.2093,-476.8171 319.9362,-490.1601 304.0187,-501.1799"/>
<polygon fill="#000000" stroke="#000000" points="301.7997,-498.4591 295.5701,-507.029 305.7842,-504.2145 301.7997,-498.4591"/>
</g>
<!-- 55&#45;&gt;24 -->
<g id="edge25" class="edge">
<title>55&#45;&gt;24</title>
<path fill="none" stroke="#0000ff" d="M398.1788,-180.1686C397.4302,-187.869 396.5399,-197.0257 395.7079,-205.5834"/>
<polygon fill="#0000ff" stroke="#0000ff" points="392.2196,-205.2949 394.7354,-215.5867 399.1867,-205.9724 392.2196,-205.2949"/>
</g>
</g>
</svg>
