<?xml version="1.0" encoding="UTF-8" standalone="no"?>
<!DOCTYPE svg PUBLIC "-//W3C//DTD SVG 1.1//EN"
 "http://www.w3.org/Graphics/SVG/1.1/DTD/svg11.dtd">
<!-- Generated by graphviz version 2.40.1 (20161225.0304)
 -->
<!-- Title: G Pages: 1 -->
<svg width="907pt" height="1412pt"
 viewBox="0.00 0.00 907.05 1412.00" xmlns="http://www.w3.org/2000/svg" xmlns:xlink="http://www.w3.org/1999/xlink">
<g id="graph0" class="graph" transform="scale(1 1) rotate(0) translate(4 1408)">
<title>G</title>
<polygon fill="#ffffff" stroke="transparent" points="-4,4 -4,-1408 903.0456,-1408 903.0456,4 -4,4"/>
<!-- 1 -->
<g id="Tnode1" class="node">
<title>1</title>
<ellipse fill="none" stroke="#000000" cx="582" cy="-306" rx="102.0819" ry="18"/>
<text text-anchor="middle" x="582" y="-302.3" font-family="Times,serif" font-size="14.00" fill="#000000">(NP&#45;cap&#45;coNP)/poly</text>
</g>
<!-- 25 -->
<g id="Tnode25" class="node">
<title>25</title>
<ellipse fill="none" stroke="#000000" cx="607" cy="-450" rx="48.1917" ry="18"/>
<text text-anchor="middle" x="607" y="-446.3" font-family="Times,serif" font-size="14.00" fill="#000000">NP/poly</text>
</g>
<!-- 1&#45;&gt;25 -->
<g id="edge81" class="edge">
<title>1&#45;&gt;25</title>
<path fill="none" stroke="#000000" d="M585.1663,-324.2377C589.4492,-348.9072 597.1285,-393.1402 602.1436,-422.0269"/>
<polygon fill="#000000" stroke="#000000" points="598.7004,-422.6565 603.8594,-431.9104 605.5973,-421.459 598.7004,-422.6565"/>
</g>
<!-- 2 -->
<g id="Tnode2" class="node">
<title>2</title>
<ellipse fill="none" stroke="#000000" cx="27" cy="-594" rx="27" ry="18"/>
<text text-anchor="middle" x="27" y="-590.3" font-family="Times,serif" font-size="14.00" fill="#000000">+P</text>
</g>
<!-- 19 -->
<g id="Tnode19" class="node">
<title>19</title>
<ellipse fill="none" stroke="#000000" cx="122" cy="-666" rx="27" ry="18"/>
<text text-anchor="middle" x="122" y="-662.3" font-family="Times,serif" font-size="14.00" fill="#000000">MP</text>
</g>
<!-- 2&#45;&gt;19 -->
<g id="edge46" class="edge">
<title>2&#45;&gt;19</title>
<path fill="none" stroke="#000000" d="M44.8688,-607.5426C59.2406,-618.435 79.6381,-633.8941 95.8476,-646.1793"/>
<polygon fill="#000000" stroke="#000000" points="93.8046,-649.0224 103.8884,-652.2733 98.0327,-643.4436 93.8046,-649.0224"/>
</g>
<!-- 3 -->
<g id="Tnode3" class="node">
<title>3</title>
<ellipse fill="none" stroke="#000000" cx="520" cy="-1314" rx="27" ry="18"/>
<text text-anchor="middle" x="520" y="-1310.3" font-family="Times,serif" font-size="14.00" fill="#000000">AH</text>
</g>
<!-- 4 -->
<g id="Tnode4" class="node">
<title>4</title>
<ellipse fill="none" stroke="#000000" cx="473" cy="-1386" rx="30.5947" ry="18"/>
<text text-anchor="middle" x="473" y="-1382.3" font-family="Times,serif" font-size="14.00" fill="#000000">ALL</text>
</g>
<!-- 3&#45;&gt;4 -->
<g id="edge92" class="edge">
<title>3&#45;&gt;4</title>
<path fill="none" stroke="#000000" d="M509.0991,-1330.6992C503.3688,-1339.4776 496.2195,-1350.4297 489.7985,-1360.2661"/>
<polygon fill="#000000" stroke="#000000" points="486.7036,-1358.6044 484.1681,-1368.8914 492.5652,-1362.4307 486.7036,-1358.6044"/>
</g>
<!-- 5 -->
<g id="Tnode5" class="node">
<title>5</title>
<ellipse fill="none" stroke="#000000" cx="517" cy="-378" rx="27" ry="18"/>
<text text-anchor="middle" x="517" y="-374.3" font-family="Times,serif" font-size="14.00" fill="#000000">AM</text>
</g>
<!-- 5&#45;&gt;25 -->
<g id="edge5" class="edge">
<title>5&#45;&gt;25</title>
<path fill="none" stroke="#0000ff" d="M534.3529,-391.8823C546.8212,-401.857 563.9128,-415.5302 578.3855,-427.1084"/>
<polygon fill="#0000ff" stroke="#0000ff" points="576.5543,-430.1256 586.5495,-433.6396 580.9272,-424.6595 576.5543,-430.1256"/>
</g>
<!-- 35 -->
<g id="Tnode35" class="node">
<title>35</title>
<ellipse fill="none" stroke="#000000" cx="493" cy="-522" rx="34.394" ry="18"/>
<text text-anchor="middle" x="493" y="-518.3" font-family="Times,serif" font-size="14.00" fill="#000000">QAM</text>
</g>
<!-- 5&#45;&gt;35 -->
<g id="edge6" class="edge">
<title>5&#45;&gt;35</title>
<path fill="none" stroke="#0000ff" d="M514.0089,-395.9465C509.9129,-420.5226 502.5168,-464.8992 497.6829,-493.9026"/>
<polygon fill="#0000ff" stroke="#0000ff" points="494.2205,-493.3879 496.0288,-503.8273 501.1252,-494.5388 494.2205,-493.3879"/>
</g>
<!-- 54 -->
<g id="Tnode54" class="node">
<title>54</title>
<ellipse fill="none" stroke="#000000" cx="284" cy="-450" rx="57.3905" ry="18"/>
<text text-anchor="middle" x="284" y="-446.3" font-family="Times,serif" font-size="14.00" fill="#000000">Sigma_2P</text>
</g>
<!-- 5&#45;&gt;54 -->
<g id="edge7" class="edge">
<title>5&#45;&gt;54</title>
<path fill="none" stroke="#ff0000" d="M495.9907,-389.3668C491.1474,-391.7437 485.9597,-394.1014 481,-396 435.0495,-413.59 381.0425,-427.9748 341.2083,-437.462"/>
<polygon fill="#ff0000" stroke="#ff0000" points="340.3337,-434.0721 331.3999,-439.7675 341.9355,-440.8864 340.3337,-434.0721"/>
</g>
<!-- 6 -->
<g id="Tnode6" class="node">
<title>6</title>
<ellipse fill="none" stroke="#000000" cx="229" cy="-378" rx="39.7935" ry="18"/>
<text text-anchor="middle" x="229" y="-374.3" font-family="Times,serif" font-size="14.00" fill="#000000">AWPP</text>
</g>
<!-- 7 -->
<g id="Tnode7" class="node">
<title>7</title>
<ellipse fill="none" stroke="#000000" cx="254" cy="-522" rx="40.8928" ry="18"/>
<text text-anchor="middle" x="254" y="-518.3" font-family="Times,serif" font-size="14.00" fill="#000000">A_0PP</text>
</g>
<!-- 6&#45;&gt;7 -->
<g id="edge27" class="edge">
<title>6&#45;&gt;7</title>
<path fill="none" stroke="#000000" d="M222.5457,-395.9623C216.9,-414.4004 210.6559,-443.744 218,-468 221.0855,-478.1908 226.7986,-488.2162 232.7789,-496.8097"/>
<polygon fill="#000000" stroke="#000000" points="229.9938,-498.93 238.7609,-504.879 235.6172,-494.7612 229.9938,-498.93"/>
</g>
<!-- 29 -->
<g id="Tnode29" class="node">
<title>29</title>
<ellipse fill="none" stroke="#000000" cx="122" cy="-594" rx="27" ry="18"/>
<text text-anchor="middle" x="122" y="-590.3" font-family="Times,serif" font-size="14.00" fill="#000000">PP</text>
</g>
<!-- 7&#45;&gt;29 -->
<g id="edge60" class="edge">
<title>7&#45;&gt;29</title>
<path fill="none" stroke="#000000" d="M228.2357,-536.0532C206.3427,-547.9949 174.8983,-565.1464 151.9004,-577.6907"/>
<polygon fill="#000000" stroke="#000000" points="150.0256,-574.7264 142.9226,-582.5877 153.3776,-580.8717 150.0256,-574.7264"/>
</g>
<!-- 8 -->
<g id="Tnode8" class="node">
<title>8</title>
<ellipse fill="none" stroke="#000000" cx="430" cy="-162" rx="30.5947" ry="18"/>
<text text-anchor="middle" x="430" y="-158.3" font-family="Times,serif" font-size="14.00" fill="#000000">BPP</text>
</g>
<!-- 9 -->
<g id="Tnode9" class="node">
<title>9</title>
<ellipse fill="none" stroke="#000000" cx="430" cy="-306" rx="31.6951" ry="18"/>
<text text-anchor="middle" x="430" y="-302.3" font-family="Times,serif" font-size="14.00" fill="#000000">BQP</text>
</g>
<!-- 8&#45;&gt;9 -->
<g id="edge22" class="edge">
<title>8&#45;&gt;9</title>
<path fill="none" stroke="#000000" d="M430,-180.2377C430,-204.799 430,-248.7526 430,-277.6459"/>
<polygon fill="#000000" stroke="#000000" points="426.5001,-277.9103 430,-287.9104 433.5001,-277.9104 426.5001,-277.9103"/>
</g>
<!-- 17 -->
<g id="Tnode17" class="node">
<title>17</title>
<ellipse fill="none" stroke="#000000" cx="345" cy="-234" rx="27" ry="18"/>
<text text-anchor="middle" x="345" y="-230.3" font-family="Times,serif" font-size="14.00" fill="#000000">MA</text>
</g>
<!-- 8&#45;&gt;17 -->
<g id="edge21" class="edge">
<title>8&#45;&gt;17</title>
<path fill="none" stroke="#000000" d="M412.3879,-176.9184C399.9493,-187.4547 383.1192,-201.7108 369.3903,-213.34"/>
<polygon fill="#000000" stroke="#000000" points="367.0902,-210.7014 361.7219,-219.8355 371.6146,-216.0427 367.0902,-210.7014"/>
</g>
<!-- 23 -->
<g id="Tnode23" class="node">
<title>23</title>
<ellipse fill="none" stroke="#000000" cx="771" cy="-234" rx="42.4939" ry="18"/>
<text text-anchor="middle" x="771" y="-230.3" font-family="Times,serif" font-size="14.00" fill="#000000">NISZK</text>
</g>
<!-- 8&#45;&gt;23 -->
<g id="edge20" class="edge">
<title>8&#45;&gt;23</title>
<path fill="none" stroke="#000000" d="M458.7796,-168.0766C517.3177,-180.4366 650.7927,-208.619 722.8068,-223.8243"/>
<polygon fill="#000000" stroke="#000000" points="722.4623,-227.3287 732.9697,-225.9701 723.9085,-220.4797 722.4623,-227.3287"/>
</g>
<!-- 27 -->
<g id="Tnode27" class="node">
<title>27</title>
<ellipse fill="none" stroke="#000000" cx="582" cy="-234" rx="39.7935" ry="18"/>
<text text-anchor="middle" x="582" y="-230.3" font-family="Times,serif" font-size="14.00" fill="#000000">P/poly</text>
</g>
<!-- 8&#45;&gt;27 -->
<g id="edge23" class="edge">
<title>8&#45;&gt;27</title>
<path fill="none" stroke="#000000" d="M454.0849,-173.4086C478.6029,-185.0224 516.9292,-203.177 545.2422,-216.5884"/>
<polygon fill="#000000" stroke="#000000" points="543.8901,-219.8207 554.4258,-220.9385 546.8867,-213.4945 543.8901,-219.8207"/>
</g>
<!-- 9&#45;&gt;6 -->
<g id="edge67" class="edge">
<title>9&#45;&gt;6</title>
<path fill="none" stroke="#000000" d="M402.8922,-315.7102C368.7125,-327.9537 309.6302,-349.1175 269.9388,-363.3354"/>
<polygon fill="#000000" stroke="#000000" points="268.5264,-360.1234 260.2925,-366.7908 270.887,-366.7134 268.5264,-360.1234"/>
</g>
<!-- 10 -->
<g id="Tnode10" class="node">
<title>10</title>
<ellipse fill="none" stroke="#000000" cx="680" cy="-378" rx="63.0888" ry="18"/>
<text text-anchor="middle" x="680" y="-374.3" font-family="Times,serif" font-size="14.00" fill="#000000">BQP/mpoly</text>
</g>
<!-- 9&#45;&gt;10 -->
<g id="edge69" class="edge">
<title>9&#45;&gt;10</title>
<path fill="none" stroke="#000000" d="M454.8976,-317.6917C460.1536,-319.9441 465.7108,-322.169 471,-324 520.0149,-340.9679 577.1201,-355.3726 619.241,-365.0259"/>
<polygon fill="#000000" stroke="#000000" points="618.5441,-368.4567 629.0706,-367.2549 620.0922,-361.63 618.5441,-368.4567"/>
</g>
<!-- 22 -->
<g id="Tnode22" class="node">
<title>22</title>
<ellipse fill="none" stroke="#000000" cx="849" cy="-378" rx="50.0912" ry="18"/>
<text text-anchor="middle" x="849" y="-374.3" font-family="Times,serif" font-size="14.00" fill="#000000">NIQSZK</text>
</g>
<!-- 9&#45;&gt;22 -->
<g id="edge68" class="edge">
<title>9&#45;&gt;22</title>
<path fill="none" stroke="#000000" d="M454.2977,-318.0262C459.6922,-320.3099 465.4566,-322.4625 471,-324 592.3294,-357.6513 627.6086,-340.5061 752,-360 766.0248,-362.1979 781.1359,-364.8594 795.1598,-367.4539"/>
<polygon fill="#000000" stroke="#000000" points="794.6748,-370.9238 805.1481,-369.3237 795.9629,-364.0433 794.6748,-370.9238"/>
</g>
<!-- 36 -->
<g id="Tnode36" class="node">
<title>36</title>
<ellipse fill="none" stroke="#000000" cx="430" cy="-378" rx="42.4939" ry="18"/>
<text text-anchor="middle" x="430" y="-374.3" font-family="Times,serif" font-size="14.00" fill="#000000">QCMA</text>
</g>
<!-- 9&#45;&gt;36 -->
<g id="edge70" class="edge">
<title>9&#45;&gt;36</title>
<path fill="none" stroke="#000000" d="M430,-324.1686C430,-331.869 430,-341.0257 430,-349.5834"/>
<polygon fill="#000000" stroke="#000000" points="426.5001,-349.5867 430,-359.5867 433.5001,-349.5868 426.5001,-349.5867"/>
</g>
<!-- 11 -->
<g id="Tnode11" class="node">
<title>11</title>
<ellipse fill="none" stroke="#000000" cx="733" cy="-450" rx="59.5901" ry="18"/>
<text text-anchor="middle" x="733" y="-446.3" font-family="Times,serif" font-size="14.00" fill="#000000">BQP/qpoly</text>
</g>
<!-- 10&#45;&gt;11 -->
<g id="edge91" class="edge">
<title>10&#45;&gt;11</title>
<path fill="none" stroke="#000000" d="M693.1011,-395.7978C699.3909,-404.3424 707.0474,-414.7436 713.9649,-424.141"/>
<polygon fill="#000000" stroke="#000000" points="711.3027,-426.4285 720.0496,-432.407 716.94,-422.2787 711.3027,-426.4285"/>
</g>
<!-- 37 -->
<g id="Tnode37" class="node">
<title>37</title>
<ellipse fill="none" stroke="#000000" cx="616" cy="-522" rx="70.3881" ry="18"/>
<text text-anchor="middle" x="616" y="-518.3" font-family="Times,serif" font-size="14.00" fill="#000000">QCMA/qpoly</text>
</g>
<!-- 11&#45;&gt;37 -->
<g id="edge41" class="edge">
<title>11&#45;&gt;37</title>
<path fill="none" stroke="#000000" d="M706.4509,-466.3379C690.375,-476.2308 669.6556,-488.9811 652.1042,-499.7821"/>
<polygon fill="#000000" stroke="#000000" points="649.9382,-497.0053 643.256,-505.2271 653.6069,-502.9669 649.9382,-497.0053"/>
</g>
<!-- 12 -->
<g id="Tnode12" class="node">
<title>12</title>
<ellipse fill="none" stroke="#000000" cx="455" cy="-810" rx="27" ry="18"/>
<text text-anchor="middle" x="455" y="-806.3" font-family="Times,serif" font-size="14.00" fill="#000000">CH</text>
</g>
<!-- 31 -->
<g id="Tnode31" class="node">
<title>31</title>
<ellipse fill="none" stroke="#000000" cx="510" cy="-882" rx="50.0912" ry="18"/>
<text text-anchor="middle" x="510" y="-878.3" font-family="Times,serif" font-size="14.00" fill="#000000">PSPACE</text>
</g>
<!-- 12&#45;&gt;31 -->
<g id="edge17" class="edge">
<title>12&#45;&gt;31</title>
<path fill="none" stroke="#000000" d="M467.4804,-826.3379C474.2648,-835.2194 482.8087,-846.4041 490.4548,-856.4136"/>
<polygon fill="#000000" stroke="#000000" points="487.7563,-858.6467 496.6081,-864.4688 493.319,-854.3974 487.7563,-858.6467"/>
</g>
<!-- 13 -->
<g id="Tnode13" class="node">
<title>13</title>
<ellipse fill="none" stroke="#000000" cx="245" cy="-234" rx="52.7911" ry="18"/>
<text text-anchor="middle" x="245" y="-230.3" font-family="Times,serif" font-size="14.00" fill="#000000">Delta_2P</text>
</g>
<!-- 53 -->
<g id="Tnode53" class="node">
<title>53</title>
<ellipse fill="none" stroke="#000000" cx="327" cy="-378" rx="34.394" ry="18"/>
<text text-anchor="middle" x="327" y="-374.3" font-family="Times,serif" font-size="14.00" fill="#000000">S_2P</text>
</g>
<!-- 13&#45;&gt;53 -->
<g id="edge10" class="edge">
<title>13&#45;&gt;53</title>
<path fill="none" stroke="#000000" d="M236.447,-251.8472C228.6169,-270.9824 220.0499,-301.6257 233,-324 239.6585,-335.5041 267.5863,-350.7528 291.2853,-362.1116"/>
<polygon fill="#000000" stroke="#000000" points="289.9005,-365.328 300.4397,-366.4116 292.8765,-358.9921 289.9005,-365.328"/>
</g>
<!-- 14 -->
<g id="Tnode14" class="node">
<title>14</title>
<ellipse fill="none" stroke="#000000" cx="142" cy="-522" rx="52.7911" ry="18"/>
<text text-anchor="middle" x="142" y="-518.3" font-family="Times,serif" font-size="14.00" fill="#000000">Delta_3P</text>
</g>
<!-- 28 -->
<g id="Tnode28" class="node">
<title>28</title>
<ellipse fill="none" stroke="#000000" cx="194" cy="-594" rx="27" ry="18"/>
<text text-anchor="middle" x="194" y="-590.3" font-family="Times,serif" font-size="14.00" fill="#000000">PH</text>
</g>
<!-- 14&#45;&gt;28 -->
<g id="edge90" class="edge">
<title>14&#45;&gt;28</title>
<path fill="none" stroke="#000000" d="M154.8539,-539.7978C161.2741,-548.6873 169.1456,-559.5862 176.1421,-569.2737"/>
<polygon fill="#000000" stroke="#000000" points="173.3146,-571.3366 182.0069,-577.3942 178.9893,-567.2381 173.3146,-571.3366"/>
</g>
<!-- 15 -->
<g id="Tnode15" class="node">
<title>15</title>
<ellipse fill="none" stroke="#000000" cx="630" cy="-1026" rx="30.5947" ry="18"/>
<text text-anchor="middle" x="630" y="-1022.3" font-family="Times,serif" font-size="14.00" fill="#000000">EXP</text>
</g>
<!-- 21 -->
<g id="Tnode21" class="node">
<title>21</title>
<ellipse fill="none" stroke="#000000" cx="540" cy="-1098" rx="57.6901" ry="18"/>
<text text-anchor="middle" x="540" y="-1094.3" font-family="Times,serif" font-size="14.00" fill="#000000">NEXP_plo</text>
</g>
<!-- 15&#45;&gt;21 -->
<g id="edge18" class="edge">
<title>15&#45;&gt;21</title>
<path fill="none" stroke="#000000" d="M611.7872,-1040.5703C599.5072,-1050.3942 583.0429,-1063.5657 568.9795,-1074.8164"/>
<polygon fill="#000000" stroke="#000000" points="566.6487,-1072.1988 561.0264,-1081.1788 571.0216,-1077.6649 566.6487,-1072.1988"/>
</g>
<!-- 16 -->
<g id="Tnode16" class="node">
<title>16</title>
<ellipse fill="none" stroke="#000000" cx="540" cy="-1170" rx="53.0913" ry="18"/>
<text text-anchor="middle" x="540" y="-1166.3" font-family="Times,serif" font-size="14.00" fill="#000000">EXP^NP</text>
</g>
<!-- 47 -->
<g id="Tnode47" class="node">
<title>47</title>
<ellipse fill="none" stroke="#000000" cx="540" cy="-1242" rx="27" ry="18"/>
<text text-anchor="middle" x="540" y="-1238.3" font-family="Times,serif" font-size="14.00" fill="#000000">RE</text>
</g>
<!-- 16&#45;&gt;47 -->
<g id="edge63" class="edge">
<title>16&#45;&gt;47</title>
<path fill="none" stroke="#000000" d="M540,-1188.1686C540,-1195.869 540,-1205.0257 540,-1213.5834"/>
<polygon fill="#000000" stroke="#000000" points="536.5001,-1213.5867 540,-1223.5867 543.5001,-1213.5868 536.5001,-1213.5867"/>
</g>
<!-- 17&#45;&gt;36 -->
<g id="edge86" class="edge">
<title>17&#45;&gt;36</title>
<path fill="none" stroke="#0000ff" d="M352.315,-251.4462C360.3596,-269.9752 374.1323,-299.8619 389,-324 394.988,-333.7217 402.3246,-343.829 409.1281,-352.6339"/>
<polygon fill="#0000ff" stroke="#0000ff" points="406.4862,-354.936 415.4263,-360.6215 411.983,-350.6018 406.4862,-354.936"/>
</g>
<!-- 50 -->
<g id="Tnode50" class="node">
<title>50</title>
<ellipse fill="none" stroke="#000000" cx="273" cy="-306" rx="30.5947" ry="18"/>
<text text-anchor="middle" x="273" y="-302.3" font-family="Times,serif" font-size="14.00" fill="#000000">SBP</text>
</g>
<!-- 17&#45;&gt;50 -->
<g id="edge85" class="edge">
<title>17&#45;&gt;50</title>
<path fill="none" stroke="#0000ff" d="M329.7307,-249.2693C319.9372,-259.0628 307.0387,-271.9613 296.0156,-282.9844"/>
<polygon fill="#0000ff" stroke="#0000ff" points="293.3413,-280.7089 288.7451,-290.2549 298.2911,-285.6587 293.3413,-280.7089"/>
</g>
<!-- 17&#45;&gt;53 -->
<g id="edge84" class="edge">
<title>17&#45;&gt;53</title>
<path fill="none" stroke="#000000" d="M342.7567,-251.9465C339.6847,-276.5226 334.1376,-320.8992 330.5122,-349.9026"/>
<polygon fill="#000000" stroke="#000000" points="327.0391,-349.4704 329.2716,-359.8273 333.985,-350.3387 327.0391,-349.4704"/>
</g>
<!-- 18 -->
<g id="Tnode18" class="node">
<title>18</title>
<ellipse fill="none" stroke="#000000" cx="658" cy="-1170" rx="46.5926" ry="18"/>
<text text-anchor="middle" x="658" y="-1166.3" font-family="Times,serif" font-size="14.00" fill="#000000">MAEXP</text>
</g>
<!-- 18&#45;&gt;47 -->
<g id="edge64" class="edge">
<title>18&#45;&gt;47</title>
<path fill="none" stroke="#000000" d="M632.9752,-1185.2693C614.2018,-1196.7243 588.4665,-1212.4272 568.8307,-1224.4084"/>
<polygon fill="#000000" stroke="#000000" points="566.9983,-1221.4263 560.2849,-1229.6228 570.6444,-1227.4018 566.9983,-1221.4263"/>
</g>
<!-- 33 -->
<g id="Tnode33" class="node">
<title>33</title>
<ellipse fill="none" stroke="#000000" cx="303" cy="-738" rx="61.99" ry="18"/>
<text text-anchor="middle" x="303" y="-734.3" font-family="Times,serif" font-size="14.00" fill="#000000">P^Sharp&#45;P</text>
</g>
<!-- 19&#45;&gt;33 -->
<g id="edge9" class="edge">
<title>19&#45;&gt;33</title>
<path fill="none" stroke="#000000" d="M143.5243,-677.2315C148.2491,-679.5647 153.2578,-681.9385 158,-684 189.0725,-697.5078 224.7246,-710.8135 252.9011,-720.8372"/>
<polygon fill="#000000" stroke="#000000" points="251.9411,-724.21 262.5359,-724.2408 254.2728,-717.6097 251.9411,-724.21"/>
</g>
<!-- 20 -->
<g id="Tnode20" class="node">
<title>20</title>
<ellipse fill="none" stroke="#000000" cx="407" cy="-1170" rx="61.99" ry="18"/>
<text text-anchor="middle" x="407" y="-1166.3" font-family="Times,serif" font-size="14.00" fill="#000000">NEXP/poly</text>
</g>
<!-- 20&#45;&gt;4 -->
<g id="edge87" class="edge">
<title>20&#45;&gt;4</title>
<path fill="none" stroke="#000000" d="M412.5136,-1188.0445C424.0681,-1225.8591 450.8831,-1313.6175 464.5959,-1358.4958"/>
<polygon fill="#000000" stroke="#000000" points="461.279,-1359.618 467.5485,-1368.1587 467.9735,-1357.5724 461.279,-1359.618"/>
</g>
<!-- 21&#45;&gt;16 -->
<g id="edge47" class="edge">
<title>21&#45;&gt;16</title>
<path fill="none" stroke="#000000" d="M540,-1116.1686C540,-1123.869 540,-1133.0257 540,-1141.5834"/>
<polygon fill="#000000" stroke="#000000" points="536.5001,-1141.5867 540,-1151.5867 543.5001,-1141.5868 536.5001,-1141.5867"/>
</g>
<!-- 21&#45;&gt;18 -->
<g id="edge49" class="edge">
<title>21&#45;&gt;18</title>
<path fill="none" stroke="#0000ff" d="M566.4815,-1114.1582C583.5327,-1124.5623 605.8535,-1138.1818 624.1827,-1149.3657"/>
<polygon fill="#0000ff" stroke="#0000ff" points="622.46,-1152.4147 632.8195,-1154.6356 626.1061,-1146.4392 622.46,-1152.4147"/>
</g>
<!-- 21&#45;&gt;20 -->
<g id="edge48" class="edge">
<title>21&#45;&gt;20</title>
<path fill="none" stroke="#000000" d="M511.141,-1113.6229C491.9743,-1123.9989 466.5874,-1137.7422 445.6776,-1149.0617"/>
<polygon fill="#000000" stroke="#000000" points="443.8514,-1146.0703 436.7236,-1153.909 447.184,-1152.2262 443.8514,-1146.0703"/>
</g>
<!-- 46 -->
<g id="Tnode46" class="node">
<title>46</title>
<ellipse fill="none" stroke="#000000" cx="849" cy="-450" rx="38.1938" ry="18"/>
<text text-anchor="middle" x="849" y="-446.3" font-family="Times,serif" font-size="14.00" fill="#000000">QSZK</text>
</g>
<!-- 22&#45;&gt;46 -->
<g id="edge19" class="edge">
<title>22&#45;&gt;46</title>
<path fill="none" stroke="#000000" d="M849,-396.1686C849,-403.869 849,-413.0257 849,-421.5834"/>
<polygon fill="#000000" stroke="#000000" points="845.5001,-421.5867 849,-431.5867 852.5001,-421.5868 845.5001,-421.5867"/>
</g>
<!-- 23&#45;&gt;22 -->
<g id="edge16" class="edge">
<title>23&#45;&gt;22</title>
<path fill="none" stroke="#0000ff" d="M785.4491,-251.2721C793.5988,-261.5295 803.5988,-275.0295 811,-288 822.4188,-308.0113 832.419,-332.1271 839.2909,-350.3566"/>
<polygon fill="#0000ff" stroke="#0000ff" points="836.0344,-351.6418 842.7759,-359.8151 842.6027,-349.2217 836.0344,-351.6418"/>
</g>
<!-- 52 -->
<g id="Tnode52" class="node">
<title>52</title>
<ellipse fill="none" stroke="#000000" cx="771" cy="-306" rx="30.5947" ry="18"/>
<text text-anchor="middle" x="771" y="-302.3" font-family="Times,serif" font-size="14.00" fill="#000000">SZK</text>
</g>
<!-- 23&#45;&gt;52 -->
<g id="edge15" class="edge">
<title>23&#45;&gt;52</title>
<path fill="none" stroke="#000000" d="M771,-252.1686C771,-259.869 771,-269.0257 771,-277.5834"/>
<polygon fill="#000000" stroke="#000000" points="767.5001,-277.5867 771,-287.5867 774.5001,-277.5868 767.5001,-277.5867"/>
</g>
<!-- 24 -->
<g id="Tnode24" class="node">
<title>24</title>
<ellipse fill="none" stroke="#000000" cx="345" cy="-162" rx="27" ry="18"/>
<text text-anchor="middle" x="345" y="-158.3" font-family="Times,serif" font-size="14.00" fill="#000000">NP</text>
</g>
<!-- 24&#45;&gt;1 -->
<g id="edge38" class="edge">
<title>24&#45;&gt;1</title>
<path fill="none" stroke="#00ff00" d="M365.2065,-174.2774C405.0175,-198.4663 494.1241,-252.6071 544.8339,-283.4181"/>
<polygon fill="#00ff00" stroke="#00ff00" points="543.1701,-286.5026 553.5337,-288.704 546.805,-280.5202 543.1701,-286.5026"/>
</g>
<!-- 24&#45;&gt;13 -->
<g id="edge36" class="edge">
<title>24&#45;&gt;13</title>
<path fill="none" stroke="#000000" d="M326.1908,-175.5426C312.1225,-185.6718 292.5691,-199.7503 276.1765,-211.553"/>
<polygon fill="#000000" stroke="#000000" points="274.0084,-208.8011 267.9381,-217.4846 278.0985,-214.4819 274.0084,-208.8011"/>
</g>
<!-- 24&#45;&gt;17 -->
<g id="edge37" class="edge">
<title>24&#45;&gt;17</title>
<path fill="none" stroke="#0000ff" d="M345,-180.1686C345,-187.869 345,-197.0257 345,-205.5834"/>
<polygon fill="#0000ff" stroke="#0000ff" points="341.5001,-205.5867 345,-215.5867 348.5001,-205.5868 341.5001,-205.5867"/>
</g>
<!-- 25&#45;&gt;37 -->
<g id="edge74" class="edge">
<title>25&#45;&gt;37</title>
<path fill="none" stroke="#0000ff" d="M609.2711,-468.1686C610.2336,-475.869 611.3782,-485.0257 612.4479,-493.5834"/>
<polygon fill="#0000ff" stroke="#0000ff" points="608.9849,-494.0981 613.6983,-503.5867 615.9309,-493.2298 608.9849,-494.0981"/>
</g>
<!-- 26 -->
<g id="Tnode26" class="node">
<title>26</title>
<ellipse fill="none" stroke="#000000" cx="345" cy="-18" rx="27" ry="18"/>
<text text-anchor="middle" x="345" y="-14.3" font-family="Times,serif" font-size="14.00" fill="#000000">P</text>
</g>
<!-- 49 -->
<g id="Tnode49" class="node">
<title>49</title>
<ellipse fill="none" stroke="#000000" cx="381" cy="-90" rx="27" ry="18"/>
<text text-anchor="middle" x="381" y="-86.3" font-family="Times,serif" font-size="14.00" fill="#000000">RP</text>
</g>
<!-- 26&#45;&gt;49 -->
<g id="edge82" class="edge">
<title>26&#45;&gt;49</title>
<path fill="none" stroke="#000000" d="M353.7146,-35.4292C357.9597,-43.9193 363.1536,-54.3071 367.8663,-63.7326"/>
<polygon fill="#000000" stroke="#000000" points="364.763,-65.3523 372.3657,-72.7313 371.024,-62.2218 364.763,-65.3523"/>
</g>
<!-- 55 -->
<g id="Tnode55" class="node">
<title>55</title>
<ellipse fill="none" stroke="#000000" cx="309" cy="-90" rx="27" ry="18"/>
<text text-anchor="middle" x="309" y="-86.3" font-family="Times,serif" font-size="14.00" fill="#000000">UP</text>
</g>
<!-- 26&#45;&gt;55 -->
<g id="edge83" class="edge">
<title>26&#45;&gt;55</title>
<path fill="none" stroke="#000000" d="M336.2854,-35.4292C332.0403,-43.9193 326.8464,-54.3071 322.1337,-63.7326"/>
<polygon fill="#000000" stroke="#000000" points="318.976,-62.2218 317.6343,-72.7313 325.237,-65.3523 318.976,-62.2218"/>
</g>
<!-- 27&#45;&gt;1 -->
<g id="edge80" class="edge">
<title>27&#45;&gt;1</title>
<path fill="none" stroke="#000000" d="M582,-252.1686C582,-259.869 582,-269.0257 582,-277.5834"/>
<polygon fill="#000000" stroke="#000000" points="578.5001,-277.5867 582,-287.5867 585.5001,-277.5868 578.5001,-277.5867"/>
</g>
<!-- 27&#45;&gt;10 -->
<g id="edge79" class="edge">
<title>27&#45;&gt;10</title>
<path fill="none" stroke="#000000" d="M618.559,-241.1646C644.2457,-248.3113 676.8042,-262.1104 693,-288 704.6393,-306.6059 699.8042,-331.544 692.9546,-350.4506"/>
<polygon fill="#000000" stroke="#000000" points="689.6043,-349.4032 689.1503,-359.9883 696.1062,-351.9967 689.6043,-349.4032"/>
</g>
<!-- 28&#45;&gt;19 -->
<g id="edge76" class="edge">
<title>28&#45;&gt;19</title>
<path fill="none" stroke="#000000" d="M178.7307,-609.2693C168.803,-619.197 155.6847,-632.3153 144.5637,-643.4363"/>
<polygon fill="#000000" stroke="#000000" points="141.8436,-641.2067 137.2473,-650.7527 146.7933,-646.1564 141.8436,-641.2067"/>
</g>
<!-- 30 -->
<g id="Tnode30" class="node">
<title>30</title>
<ellipse fill="none" stroke="#000000" cx="213" cy="-666" rx="46.2923" ry="18"/>
<text text-anchor="middle" x="213" y="-662.3" font-family="Times,serif" font-size="14.00" fill="#000000">PP/poly</text>
</g>
<!-- 28&#45;&gt;30 -->
<g id="edge75" class="edge">
<title>28&#45;&gt;30</title>
<path fill="none" stroke="#000000" d="M198.6966,-611.7978C200.7818,-619.6995 203.286,-629.189 205.6122,-638.0041"/>
<polygon fill="#000000" stroke="#000000" points="202.2897,-639.1309 208.2254,-647.9069 209.058,-637.3448 202.2897,-639.1309"/>
</g>
<!-- 29&#45;&gt;19 -->
<g id="edge35" class="edge">
<title>29&#45;&gt;19</title>
<path fill="none" stroke="#000000" d="M122,-612.1686C122,-619.869 122,-629.0257 122,-637.5834"/>
<polygon fill="#000000" stroke="#000000" points="118.5001,-637.5867 122,-647.5867 125.5001,-637.5868 118.5001,-637.5867"/>
</g>
<!-- 29&#45;&gt;30 -->
<g id="edge34" class="edge">
<title>29&#45;&gt;30</title>
<path fill="none" stroke="#000000" d="M139.5457,-607.8823C152.2704,-617.9502 169.7575,-631.7861 184.4772,-643.4325"/>
<polygon fill="#000000" stroke="#000000" points="182.3083,-646.1795 192.3222,-649.6396 186.6517,-640.6899 182.3083,-646.1795"/>
</g>
<!-- 32 -->
<g id="Tnode32" class="node">
<title>32</title>
<ellipse fill="none" stroke="#000000" cx="407" cy="-954" rx="72.2875" ry="18"/>
<text text-anchor="middle" x="407" y="-950.3" font-family="Times,serif" font-size="14.00" fill="#000000">PSPACE/poly</text>
</g>
<!-- 30&#45;&gt;32 -->
<g id="edge11" class="edge">
<title>30&#45;&gt;32</title>
<path fill="none" stroke="#000000" d="M214.1028,-684.1434C215.8561,-702.986 220.3775,-732.8873 232,-756 268.4635,-828.5119 338.1068,-895.3637 377.6557,-929.7476"/>
<polygon fill="#000000" stroke="#000000" points="375.7484,-932.7231 385.6155,-936.5823 380.3087,-927.4123 375.7484,-932.7231"/>
</g>
<!-- 31&#45;&gt;32 -->
<g id="edge24" class="edge">
<title>31&#45;&gt;32</title>
<path fill="none" stroke="#000000" d="M486.8848,-898.1582C472.9724,-907.8834 455.0409,-920.418 439.6928,-931.1468"/>
<polygon fill="#000000" stroke="#000000" points="437.6646,-928.2941 431.4738,-936.8921 441.6752,-934.0314 437.6646,-928.2941"/>
</g>
<!-- 38 -->
<g id="Tnode38" class="node">
<title>38</title>
<ellipse fill="none" stroke="#000000" cx="619" cy="-954" rx="28.6953" ry="18"/>
<text text-anchor="middle" x="619" y="-950.3" font-family="Times,serif" font-size="14.00" fill="#000000">QIP</text>
</g>
<!-- 31&#45;&gt;38 -->
<g id="edge25" class="edge">
<title>31&#45;&gt;38</title>
<path fill="none" stroke="#000000" d="M534.1906,-897.9791C550.8544,-908.9864 573.0612,-923.6551 590.571,-935.2212"/>
<polygon fill="#000000" stroke="#000000" points="588.9721,-938.3596 599.2451,-940.9509 592.8302,-932.5188 588.9721,-938.3596"/>
</g>
<!-- 48 -->
<g id="Tnode48" class="node">
<title>48</title>
<ellipse fill="none" stroke="#000000" cx="535" cy="-954" rx="37.8943" ry="18"/>
<text text-anchor="middle" x="535" y="-950.3" font-family="Times,serif" font-size="14.00" fill="#000000">RG(3)</text>
</g>
<!-- 31&#45;&gt;48 -->
<g id="edge26" class="edge">
<title>31&#45;&gt;48</title>
<path fill="none" stroke="#000000" d="M516.3086,-900.1686C519.0831,-908.1594 522.4021,-917.7181 525.4683,-926.5486"/>
<polygon fill="#000000" stroke="#000000" points="522.1935,-927.7879 528.7801,-936.0866 528.8062,-925.4918 522.1935,-927.7879"/>
</g>
<!-- 32&#45;&gt;20 -->
<g id="edge55" class="edge">
<title>32&#45;&gt;20</title>
<path fill="none" stroke="#000000" d="M407,-972.0445C407,-1009.6062 407,-1096.4459 407,-1141.5897"/>
<polygon fill="#000000" stroke="#000000" points="403.5001,-1141.8549 407,-1151.8549 410.5001,-1141.855 403.5001,-1141.8549"/>
</g>
<!-- 33&#45;&gt;12 -->
<g id="edge77" class="edge">
<title>33&#45;&gt;12</title>
<path fill="none" stroke="#000000" d="M335.6078,-753.4458C361.5974,-765.7567 397.7682,-782.8902 423.4706,-795.065"/>
<polygon fill="#000000" stroke="#000000" points="422.23,-798.3501 432.7657,-799.4679 425.2266,-792.0239 422.23,-798.3501"/>
</g>
<!-- 34 -->
<g id="Tnode34" class="node">
<title>34</title>
<ellipse fill="none" stroke="#000000" cx="83" cy="-450" rx="50.0912" ry="18"/>
<text text-anchor="middle" x="83" y="-446.3" font-family="Times,serif" font-size="14.00" fill="#000000">PostBPP</text>
</g>
<!-- 34&#45;&gt;14 -->
<g id="edge2" class="edge">
<title>34&#45;&gt;14</title>
<path fill="none" stroke="#000000" d="M97.2823,-467.4292C104.4761,-476.2081 113.3324,-487.0159 121.2605,-496.6907"/>
<polygon fill="#000000" stroke="#000000" points="118.5993,-498.9653 127.6448,-504.4818 124.0137,-494.5286 118.5993,-498.9653"/>
</g>
<!-- 34&#45;&gt;29 -->
<g id="edge1" class="edge">
<title>34&#45;&gt;29</title>
<path fill="none" stroke="#000000" d="M78.6925,-468.1474C75.1239,-486.733 71.8313,-516.1922 80,-540 83.9544,-551.5254 91.4848,-562.4857 99.0898,-571.4829"/>
<polygon fill="#000000" stroke="#000000" points="96.7029,-574.0627 105.9946,-579.1535 101.9056,-569.3795 96.7029,-574.0627"/>
</g>
<!-- 35&#45;&gt;12 -->
<g id="edge56" class="edge">
<title>35&#45;&gt;12</title>
<path fill="none" stroke="#000000" d="M490.6229,-540.0157C484.1985,-588.7061 466.4523,-723.2039 458.702,-781.9427"/>
<polygon fill="#000000" stroke="#000000" points="455.2144,-781.6192 457.3762,-791.9911 462.1543,-782.5349 455.2144,-781.6192"/>
</g>
<!-- 39 -->
<g id="Tnode39" class="node">
<title>39</title>
<ellipse fill="none" stroke="#000000" cx="784" cy="-594" rx="41.6928" ry="18"/>
<text text-anchor="middle" x="784" y="-590.3" font-family="Times,serif" font-size="14.00" fill="#000000">QIP(2)</text>
</g>
<!-- 35&#45;&gt;39 -->
<g id="edge57" class="edge">
<title>35&#45;&gt;39</title>
<path fill="none" stroke="#0000ff" d="M519.7229,-533.7922C525.3633,-536.0373 531.3261,-538.2338 537,-540 604.4409,-560.9934 684.689,-576.9306 734.9979,-585.8734"/>
<polygon fill="#0000ff" stroke="#0000ff" points="734.5009,-589.3396 744.9555,-587.6215 735.7113,-582.445 734.5009,-589.3396"/>
</g>
<!-- 42 -->
<g id="Tnode42" class="node">
<title>42</title>
<ellipse fill="none" stroke="#000000" cx="563" cy="-594" rx="65.7887" ry="18"/>
<text text-anchor="middle" x="563" y="-590.3" font-family="Times,serif" font-size="14.00" fill="#000000">QMA/mpoly</text>
</g>
<!-- 35&#45;&gt;42 -->
<g id="edge58" class="edge">
<title>35&#45;&gt;42</title>
<path fill="none" stroke="#0000ff" d="M508.8841,-538.3379C517.6916,-547.3971 528.8287,-558.8524 538.7068,-569.0127"/>
<polygon fill="#0000ff" stroke="#0000ff" points="536.4755,-571.7386 545.9558,-576.4688 541.4945,-566.8591 536.4755,-571.7386"/>
</g>
<!-- 36&#45;&gt;37 -->
<g id="edge72" class="edge">
<title>36&#45;&gt;37</title>
<path fill="none" stroke="#0000ff" d="M450.6159,-393.9607C483.4154,-419.3539 547.6509,-469.0846 585.6938,-498.5372"/>
<polygon fill="#0000ff" stroke="#0000ff" points="583.8011,-501.4982 593.851,-504.8524 588.0864,-495.9631 583.8011,-501.4982"/>
</g>
<!-- 40 -->
<g id="Tnode40" class="node">
<title>40</title>
<ellipse fill="none" stroke="#000000" cx="431" cy="-450" rx="34.394" ry="18"/>
<text text-anchor="middle" x="431" y="-446.3" font-family="Times,serif" font-size="14.00" fill="#000000">QMA</text>
</g>
<!-- 36&#45;&gt;40 -->
<g id="edge73" class="edge">
<title>36&#45;&gt;40</title>
<path fill="none" stroke="#0000ff" d="M430.2523,-396.1686C430.3593,-403.869 430.4865,-413.0257 430.6053,-421.5834"/>
<polygon fill="#0000ff" stroke="#0000ff" points="427.1056,-421.6363 430.7443,-431.5867 434.1049,-421.5391 427.1056,-421.6363"/>
</g>
<!-- 37&#45;&gt;42 -->
<g id="edge71" class="edge">
<title>37&#45;&gt;42</title>
<path fill="none" stroke="#0000ff" d="M602.8989,-539.7978C596.656,-548.2786 589.0668,-558.5885 582.1901,-567.9304"/>
<polygon fill="#0000ff" stroke="#0000ff" points="579.2436,-566.0292 576.1341,-576.1575 584.881,-570.1789 579.2436,-566.0292"/>
</g>
<!-- 38&#45;&gt;15 -->
<g id="edge31" class="edge">
<title>38&#45;&gt;15</title>
<path fill="none" stroke="#000000" d="M621.7758,-972.1686C622.9522,-979.869 624.3511,-989.0257 625.6586,-997.5834"/>
<polygon fill="#000000" stroke="#000000" points="622.2167,-998.2301 627.1869,-1007.5867 629.1364,-997.1728 622.2167,-998.2301"/>
</g>
<!-- 44 -->
<g id="Tnode44" class="node">
<title>44</title>
<ellipse fill="none" stroke="#000000" cx="530" cy="-1026" rx="51.1914" ry="18"/>
<text text-anchor="middle" x="530" y="-1022.3" font-family="Times,serif" font-size="14.00" fill="#000000">QMIP_le</text>
</g>
<!-- 38&#45;&gt;44 -->
<g id="edge32" class="edge">
<title>38&#45;&gt;44</title>
<path fill="none" stroke="#0000ff" d="M601.4165,-968.2249C589.2203,-978.0914 572.7035,-991.4533 558.6258,-1002.842"/>
<polygon fill="#0000ff" stroke="#0000ff" points="556.2433,-1000.2675 550.6701,-1009.2781 560.6459,-1005.7097 556.2433,-1000.2675"/>
</g>
<!-- 39&#45;&gt;38 -->
<g id="edge78" class="edge">
<title>39&#45;&gt;38</title>
<path fill="none" stroke="#0000ff" d="M782.608,-612.0223C778.8645,-652.6575 766.1367,-753.6681 728,-828 706.6737,-869.5669 668.8677,-908.8398 643.8669,-932.1664"/>
<polygon fill="#0000ff" stroke="#0000ff" points="641.2422,-929.8245 636.2368,-939.1624 645.9729,-934.984 641.2422,-929.8245"/>
</g>
<!-- 40&#45;&gt;7 -->
<g id="edge45" class="edge">
<title>40&#45;&gt;7</title>
<path fill="none" stroke="#0000ff" d="M403.7317,-461.0922C374.341,-473.0477 327.2784,-492.1918 293.7648,-505.8245"/>
<polygon fill="#0000ff" stroke="#0000ff" points="292.2104,-502.6782 284.2663,-509.6883 294.8481,-509.1623 292.2104,-502.6782"/>
</g>
<!-- 40&#45;&gt;35 -->
<g id="edge43" class="edge">
<title>40&#45;&gt;35</title>
<path fill="none" stroke="#0000ff" d="M445.3799,-466.6992C453.2833,-475.8774 463.2331,-487.432 471.9914,-497.6029"/>
<polygon fill="#0000ff" stroke="#0000ff" points="469.5206,-500.0975 478.6981,-505.3913 474.825,-495.5298 469.5206,-500.0975"/>
</g>
<!-- 41 -->
<g id="Tnode41" class="node">
<title>41</title>
<ellipse fill="none" stroke="#000000" cx="639" cy="-738" rx="47.3916" ry="18"/>
<text text-anchor="middle" x="639" y="-734.3" font-family="Times,serif" font-size="14.00" fill="#000000">QMA(2)</text>
</g>
<!-- 40&#45;&gt;41 -->
<g id="edge44" class="edge">
<title>40&#45;&gt;41</title>
<path fill="none" stroke="#0000ff" d="M433.2969,-467.9938C435.9985,-486.4571 441.2602,-515.8203 450,-540 462.2997,-574.0287 465.2337,-583.8765 488,-612 522.7079,-654.8751 573.7493,-693.8177 606.684,-716.7146"/>
<polygon fill="#0000ff" stroke="#0000ff" points="604.8295,-719.6868 615.055,-722.4599 608.7907,-713.9154 604.8295,-719.6868"/>
</g>
<!-- 45 -->
<g id="Tnode45" class="node">
<title>45</title>
<ellipse fill="none" stroke="#000000" cx="358" cy="-522" rx="45.4919" ry="18"/>
<text text-anchor="middle" x="358" y="-518.3" font-family="Times,serif" font-size="14.00" fill="#000000">QRG(1)</text>
</g>
<!-- 40&#45;&gt;45 -->
<g id="edge42" class="edge">
<title>40&#45;&gt;45</title>
<path fill="none" stroke="#000000" d="M414.7989,-465.9791C405.3348,-475.3137 393.2008,-487.2814 382.5796,-497.7571"/>
<polygon fill="#000000" stroke="#000000" points="379.8349,-495.5483 375.1729,-505.0623 384.7504,-500.5321 379.8349,-495.5483"/>
</g>
<!-- 41&#45;&gt;15 -->
<g id="edge12" class="edge">
<title>41&#45;&gt;15</title>
<path fill="none" stroke="#000000" d="M644.0503,-755.8997C654.419,-795.4612 675.629,-893.0865 657,-972 654.7363,-981.5891 650.4947,-991.4169 646.0329,-1000.0151"/>
<polygon fill="#000000" stroke="#000000" points="642.956,-998.3468 641.1882,-1008.7931 649.0846,-1001.7293 642.956,-998.3468"/>
</g>
<!-- 42&#45;&gt;30 -->
<g id="edge50" class="edge">
<title>42&#45;&gt;30</title>
<path fill="none" stroke="#000000" d="M510.2225,-604.8571C443.6056,-618.5611 329.7927,-641.9741 264.019,-655.5047"/>
<polygon fill="#000000" stroke="#000000" points="262.9795,-652.1451 253.8898,-657.5884 264.39,-659.0016 262.9795,-652.1451"/>
</g>
<!-- 43 -->
<g id="Tnode43" class="node">
<title>43</title>
<ellipse fill="none" stroke="#000000" cx="563" cy="-810" rx="63.0888" ry="18"/>
<text text-anchor="middle" x="563" y="-806.3" font-family="Times,serif" font-size="14.00" fill="#000000">QMA/qpoly</text>
</g>
<!-- 42&#45;&gt;43 -->
<g id="edge51" class="edge">
<title>42&#45;&gt;43</title>
<path fill="none" stroke="#0000ff" d="M563,-612.0445C563,-649.6062 563,-736.4459 563,-781.5897"/>
<polygon fill="#0000ff" stroke="#0000ff" points="559.5001,-781.8549 563,-791.8549 566.5001,-781.855 559.5001,-781.8549"/>
</g>
<!-- 43&#45;&gt;32 -->
<g id="edge62" class="edge">
<title>43&#45;&gt;32</title>
<path fill="none" stroke="#000000" d="M519.5136,-823.2099C496.8493,-831.8651 469.9789,-845.1244 451,-864 433.5679,-881.3372 421.9713,-906.9695 415.0809,-926.4497"/>
<polygon fill="#000000" stroke="#000000" points="411.7396,-925.4057 411.9006,-935.9993 418.381,-927.6175 411.7396,-925.4057"/>
</g>
<!-- 44&#45;&gt;21 -->
<g id="edge33" class="edge">
<title>44&#45;&gt;21</title>
<path fill="none" stroke="#0000ff" d="M532.5234,-1044.1686C533.5929,-1051.869 534.8647,-1061.0257 536.0532,-1069.5834"/>
<polygon fill="#0000ff" stroke="#0000ff" points="532.6001,-1070.1633 537.4426,-1079.5867 539.5336,-1069.2003 532.6001,-1070.1633"/>
</g>
<!-- 45&#45;&gt;31 -->
<g id="edge61" class="edge">
<title>45&#45;&gt;31</title>
<path fill="none" stroke="#000000" d="M365.252,-539.8462C375.5037,-566.7298 393,-619.4326 393,-666 393,-666 393,-666 393,-738 393,-779.6357 393.5305,-795.0631 419,-828 431.1369,-843.6953 449.2293,-855.7585 466.0922,-864.4608"/>
<polygon fill="#000000" stroke="#000000" points="464.7666,-867.7085 475.2883,-868.9513 467.8382,-861.4183 464.7666,-867.7085"/>
</g>
<!-- 46&#45;&gt;31 -->
<g id="edge13" class="edge">
<title>46&#45;&gt;31</title>
<path fill="none" stroke="#000000" d="M822.3283,-463.1519C782.9852,-484.6509 714,-531.289 714,-594 714,-594 714,-594 714,-738 714,-812.1228 622.9986,-851.4692 562.5547,-869.4282"/>
<polygon fill="#000000" stroke="#000000" points="561.4155,-866.1137 552.7651,-872.231 563.3422,-872.8433 561.4155,-866.1137"/>
</g>
<!-- 46&#45;&gt;39 -->
<g id="edge14" class="edge">
<title>46&#45;&gt;39</title>
<path fill="none" stroke="#000000" d="M841.0297,-467.6572C829.8215,-492.4878 809.3076,-537.934 796.1801,-567.0164"/>
<polygon fill="#000000" stroke="#000000" points="792.9596,-565.6439 792.0355,-576.1983 799.3398,-568.5238 792.9596,-565.6439"/>
</g>
<!-- 47&#45;&gt;3 -->
<g id="edge30" class="edge">
<title>47&#45;&gt;3</title>
<path fill="none" stroke="#000000" d="M535.0562,-1259.7978C532.8206,-1267.8459 530.1274,-1277.5412 527.6407,-1286.4933"/>
<polygon fill="#000000" stroke="#000000" points="524.2605,-1285.5855 524.9563,-1296.1575 531.0051,-1287.459 524.2605,-1285.5855"/>
</g>
<!-- 48&#45;&gt;15 -->
<g id="edge59" class="edge">
<title>48&#45;&gt;15</title>
<path fill="none" stroke="#000000" d="M555.1471,-969.2693C569.1175,-979.8575 587.8766,-994.0749 603.1201,-1005.6279"/>
<polygon fill="#000000" stroke="#000000" points="601.0905,-1008.4813 611.1743,-1011.7321 605.3187,-1002.9025 601.0905,-1008.4813"/>
</g>
<!-- 49&#45;&gt;8 -->
<g id="edge39" class="edge">
<title>49&#45;&gt;8</title>
<path fill="none" stroke="#000000" d="M392.3647,-106.6992C398.3999,-115.5671 405.9447,-126.6535 412.6913,-136.5668"/>
<polygon fill="#000000" stroke="#000000" points="409.8368,-138.5934 418.3566,-144.8914 415.6238,-134.655 409.8368,-138.5934"/>
</g>
<!-- 49&#45;&gt;24 -->
<g id="edge40" class="edge">
<title>49&#45;&gt;24</title>
<path fill="none" stroke="#0000ff" d="M372.2854,-107.4292C368.0403,-115.9193 362.8464,-126.3071 358.1337,-135.7326"/>
<polygon fill="#0000ff" stroke="#0000ff" points="354.976,-134.2218 353.6343,-144.7313 361.237,-137.3523 354.976,-134.2218"/>
</g>
<!-- 50&#45;&gt;5 -->
<g id="edge54" class="edge">
<title>50&#45;&gt;5</title>
<path fill="none" stroke="#0000ff" d="M302.1887,-311.5586C342.9785,-319.7774 418.9957,-336.7443 481,-360 482.8647,-360.6994 484.7603,-361.4661 486.657,-362.2766"/>
<polygon fill="#0000ff" stroke="#0000ff" points="485.4624,-365.5797 496.0095,-366.5834 488.3903,-359.2214 485.4624,-365.5797"/>
</g>
<!-- 50&#45;&gt;7 -->
<g id="edge53" class="edge">
<title>50&#45;&gt;7</title>
<path fill="none" stroke="#0000ff" d="M245.1149,-313.7798C223.1072,-321.5535 193.8796,-335.8912 180,-360 152.8639,-407.1352 197.9546,-465.9789 228.8288,-498.1881"/>
<polygon fill="#0000ff" stroke="#0000ff" points="226.4241,-500.7343 235.9356,-505.4013 231.4105,-495.8215 226.4241,-500.7343"/>
</g>
<!-- 50&#45;&gt;34 -->
<g id="edge52" class="edge">
<title>50&#45;&gt;34</title>
<path fill="none" stroke="#000000" d="M244.868,-313.2262C217.6648,-321.26 176.3606,-336.3168 147,-360 125.4857,-377.3541 107.906,-403.7051 96.6524,-423.4159"/>
<polygon fill="#000000" stroke="#000000" points="93.5614,-421.7731 91.7912,-432.219 99.6892,-425.157 93.5614,-421.7731"/>
</g>
<!-- 51 -->
<g id="Tnode51" class="node">
<title>51</title>
<ellipse fill="none" stroke="#000000" cx="156" cy="-306" rx="29.795" ry="18"/>
<text text-anchor="middle" x="156" y="-302.3" font-family="Times,serif" font-size="14.00" fill="#000000">SPP</text>
</g>
<!-- 51&#45;&gt;2 -->
<g id="edge66" class="edge">
<title>51&#45;&gt;2</title>
<path fill="none" stroke="#000000" d="M134.4582,-318.5325C103.2038,-338.1234 46.5585,-379.2809 24,-432 5.2272,-475.8719 12.6517,-532.7365 19.7972,-566.1094"/>
<polygon fill="#000000" stroke="#000000" points="16.4341,-567.104 22.0738,-576.0731 23.2583,-565.5447 16.4341,-567.104"/>
</g>
<!-- 51&#45;&gt;6 -->
<g id="edge65" class="edge">
<title>51&#45;&gt;6</title>
<path fill="none" stroke="#000000" d="M171.8399,-321.6229C181.516,-331.1665 194.0805,-343.5589 204.9645,-354.2938"/>
<polygon fill="#000000" stroke="#000000" points="202.5975,-356.8752 212.175,-361.4055 207.5131,-351.8914 202.5975,-356.8752"/>
</g>
<!-- 52&#45;&gt;5 -->
<g id="edge3" class="edge">
<title>52&#45;&gt;5</title>
<path fill="none" stroke="#000000" d="M743.334,-313.8423C696.782,-327.0382 602.8895,-353.6534 551.8877,-368.1106"/>
<polygon fill="#000000" stroke="#000000" points="550.6533,-364.8225 541.9869,-370.9171 552.5623,-371.5572 550.6533,-364.8225"/>
</g>
<!-- 52&#45;&gt;46 -->
<g id="edge4" class="edge">
<title>52&#45;&gt;46</title>
<path fill="none" stroke="#000000" d="M771.5903,-324.0534C772.9191,-343.0895 777.0924,-373.3955 790,-396 797.1878,-408.5877 808.3242,-419.8886 818.9936,-428.8592"/>
<polygon fill="#000000" stroke="#000000" points="816.9913,-431.7393 826.9885,-435.2474 821.361,-426.2707 816.9913,-431.7393"/>
</g>
<!-- 53&#45;&gt;45 -->
<g id="edge88" class="edge">
<title>53&#45;&gt;45</title>
<path fill="none" stroke="#000000" d="M336.121,-395.5113C341.078,-405.8484 346.828,-419.3484 350,-432 355.0785,-452.2559 357.0386,-475.7827 357.7501,-493.7009"/>
<polygon fill="#000000" stroke="#000000" points="354.2543,-493.9001 358.0438,-503.794 361.2514,-493.6964 354.2543,-493.9001"/>
</g>
<!-- 53&#45;&gt;54 -->
<g id="edge89" class="edge">
<title>53&#45;&gt;54</title>
<path fill="none" stroke="#000000" d="M316.5909,-395.4292C311.5429,-403.8816 305.3717,-414.2149 299.7625,-423.6069"/>
<polygon fill="#000000" stroke="#000000" points="296.7345,-421.8511 294.612,-432.2311 302.7443,-425.4403 296.7345,-421.8511"/>
</g>
<!-- 54&#45;&gt;14 -->
<g id="edge8" class="edge">
<title>54&#45;&gt;14</title>
<path fill="none" stroke="#000000" d="M253.5374,-465.4458C232.1933,-476.2682 203.4988,-490.8175 180.5595,-502.4487"/>
<polygon fill="#000000" stroke="#000000" points="178.7762,-499.4287 171.44,-507.0727 181.9418,-505.672 178.7762,-499.4287"/>
</g>
<!-- 55&#45;&gt;24 -->
<g id="edge29" class="edge">
<title>55&#45;&gt;24</title>
<path fill="none" stroke="#0000ff" d="M317.7146,-107.4292C321.9597,-115.9193 327.1536,-126.3071 331.8663,-135.7326"/>
<polygon fill="#0000ff" stroke="#0000ff" points="328.763,-137.3523 336.3657,-144.7313 335.024,-134.2218 328.763,-137.3523"/>
</g>
<!-- 55&#45;&gt;51 -->
<g id="edge28" class="edge">
<title>55&#45;&gt;51</title>
<path fill="none" stroke="#000000" d="M290.7393,-103.3812C263.3759,-124.3705 211.8716,-167.6626 183,-216 171.5487,-235.172 164.6237,-259.5754 160.6588,-278.133"/>
<polygon fill="#000000" stroke="#000000" points="157.2071,-277.5464 158.7025,-288.0351 164.0744,-278.9031 157.2071,-277.5464"/>
</g>
</g>
</svg>
