<?xml version="1.0" encoding="UTF-8" standalone="no"?>
<!DOCTYPE svg PUBLIC "-//W3C//DTD SVG 1.1//EN"
 "http://www.w3.org/Graphics/SVG/1.1/DTD/svg11.dtd">
<!-- Generated by graphviz version 2.40.1 (20161225.0304)
 -->
<!-- Title: G Pages: 1 -->
<svg width="770pt" height="1700pt"
 viewBox="0.00 0.00 770.44 1700.00" xmlns="http://www.w3.org/2000/svg" xmlns:xlink="http://www.w3.org/1999/xlink">
<g id="graph0" class="graph" transform="scale(1 1) rotate(0) translate(4 1696)">
<title>G</title>
<polygon fill="#ffffff" stroke="transparent" points="-4,4 -4,-1696 766.4412,-1696 766.4412,4 -4,4"/>
<!-- 1 -->
<g id="Rnode1" class="node">
<title>1</title>
<ellipse fill="none" stroke="#000000" cx="555.1459" cy="-306" rx="83.3857" ry="18"/>
<text text-anchor="middle" x="555.1459" y="-302.3" font-family="Times,serif" font-size="14.00" fill="#000000">(NP&#45;cap&#45;coNP)/poly</text>
</g>
<!-- 25 -->
<g id="Rnode25" class="node">
<title>25</title>
<ellipse fill="none" stroke="#000000" cx="555.1459" cy="-378" rx="40.0939" ry="18"/>
<text text-anchor="middle" x="555.1459" y="-374.3" font-family="Times,serif" font-size="14.00" fill="#000000">NP/poly</text>
</g>
<!-- 1&#45;&gt;25 -->
<g id="edge76" class="edge">
<title>1&#45;&gt;25</title>
<path fill="none" stroke="#000000" d="M555.1459,-324.1686C555.1459,-331.869 555.1459,-341.0257 555.1459,-349.5834"/>
<polygon fill="#000000" stroke="#000000" points="551.646,-349.5867 555.1459,-359.5867 558.646,-349.5868 551.646,-349.5867"/>
</g>
<!-- 2 -->
<g id="Rnode2" class="node">
<title>2</title>
<ellipse fill="none" stroke="#000000" cx="409.1459" cy="-738" rx="27" ry="18"/>
<text text-anchor="middle" x="409.1459" y="-734.3" font-family="Times,serif" font-size="14.00" fill="#000000">+P</text>
</g>
<!-- 18 -->
<g id="Rnode18" class="node">
<title>18</title>
<ellipse fill="none" stroke="#000000" cx="380.1459" cy="-954" rx="27" ry="18"/>
<text text-anchor="middle" x="380.1459" y="-950.3" font-family="Times,serif" font-size="14.00" fill="#000000">MP</text>
</g>
<!-- 2&#45;&gt;18 -->
<g id="edge66" class="edge">
<title>2&#45;&gt;18</title>
<path fill="none" stroke="#000000" d="M405.5131,-755.9497C403.4688,-766.4329 400.9688,-779.9329 399.1459,-792 392.0775,-838.7908 386.1411,-893.524 382.8707,-925.8925"/>
<polygon fill="#000000" stroke="#000000" points="379.3756,-925.6706 381.8661,-935.9685 386.3411,-926.3651 379.3756,-925.6706"/>
</g>
<!-- 3 -->
<g id="Rnode3" class="node">
<title>3</title>
<ellipse fill="none" stroke="#000000" cx="224.1459" cy="-1602" rx="27" ry="18"/>
<text text-anchor="middle" x="224.1459" y="-1598.3" font-family="Times,serif" font-size="14.00" fill="#000000">AH</text>
</g>
<!-- 5 -->
<g id="Rnode5" class="node">
<title>5</title>
<ellipse fill="none" stroke="#000000" cx="251.1459" cy="-1674" rx="27.8951" ry="18"/>
<text text-anchor="middle" x="251.1459" y="-1670.3" font-family="Times,serif" font-size="14.00" fill="#000000">ALL</text>
</g>
<!-- 3&#45;&gt;5 -->
<g id="edge82" class="edge">
<title>3&#45;&gt;5</title>
<path fill="none" stroke="#000000" d="M230.8201,-1619.7978C233.8935,-1627.9936 237.6075,-1637.8976 241.0155,-1646.9855"/>
<polygon fill="#000000" stroke="#000000" points="237.7601,-1648.2726 244.5485,-1656.407 244.3144,-1645.8147 237.7601,-1648.2726"/>
</g>
<!-- 4 -->
<g id="Rnode4" class="node">
<title>4</title>
<ellipse fill="none" stroke="#000000" cx="139.1459" cy="-1530" rx="38.9931" ry="18"/>
<text text-anchor="middle" x="139.1459" y="-1526.3" font-family="Times,serif" font-size="14.00" fill="#000000">AH_plo</text>
</g>
<!-- 4&#45;&gt;3 -->
<g id="edge4" class="edge">
<title>4&#45;&gt;3</title>
<path fill="none" stroke="#000000" d="M158.0102,-1545.9791C170.2421,-1556.3403 186.3042,-1569.9458 199.536,-1581.154"/>
<polygon fill="#000000" stroke="#000000" points="197.4568,-1583.9796 207.3495,-1587.7724 201.9812,-1578.6383 197.4568,-1583.9796"/>
</g>
<!-- 6 -->
<g id="Rnode6" class="node">
<title>6</title>
<ellipse fill="none" stroke="#000000" cx="490.1459" cy="-738" rx="35.9954" ry="18"/>
<text text-anchor="middle" x="490.1459" y="-734.3" font-family="Times,serif" font-size="14.00" fill="#000000">AWPP</text>
</g>
<!-- 7 -->
<g id="Rnode7" class="node">
<title>7</title>
<ellipse fill="none" stroke="#000000" cx="444.1459" cy="-810" rx="35.9954" ry="18"/>
<text text-anchor="middle" x="444.1459" y="-806.3" font-family="Times,serif" font-size="14.00" fill="#000000">A_0PP</text>
</g>
<!-- 6&#45;&gt;7 -->
<g id="edge29" class="edge">
<title>6&#45;&gt;7</title>
<path fill="none" stroke="#000000" d="M479.0106,-755.4292C473.5298,-764.0078 466.8113,-774.5238 460.7399,-784.0268"/>
<polygon fill="#000000" stroke="#000000" points="457.6132,-782.42 455.1787,-792.7313 463.5121,-786.1887 457.6132,-782.42"/>
</g>
<!-- 29 -->
<g id="Rnode29" class="node">
<title>29</title>
<ellipse fill="none" stroke="#000000" cx="444.1459" cy="-882" rx="27" ry="18"/>
<text text-anchor="middle" x="444.1459" y="-878.3" font-family="Times,serif" font-size="14.00" fill="#000000">PP</text>
</g>
<!-- 7&#45;&gt;29 -->
<g id="edge53" class="edge">
<title>7&#45;&gt;29</title>
<path fill="none" stroke="#000000" d="M444.1459,-828.1686C444.1459,-835.869 444.1459,-845.0257 444.1459,-853.5834"/>
<polygon fill="#000000" stroke="#000000" points="440.646,-853.5867 444.1459,-863.5867 447.646,-853.5868 440.646,-853.5867"/>
</g>
<!-- 8 -->
<g id="Rnode8" class="node">
<title>8</title>
<ellipse fill="none" stroke="#000000" cx="378.1459" cy="-234" rx="27.8951" ry="18"/>
<text text-anchor="middle" x="378.1459" y="-230.3" font-family="Times,serif" font-size="14.00" fill="#000000">BQP</text>
</g>
<!-- 8&#45;&gt;6 -->
<g id="edge68" class="edge">
<title>8&#45;&gt;6</title>
<path fill="none" stroke="#000000" d="M395.2662,-248.7879C405.6537,-258.7749 418.2058,-272.8605 425.1459,-288 492.7269,-435.4242 493.6992,-636.0573 491.4485,-709.5393"/>
<polygon fill="#000000" stroke="#000000" points="487.9404,-709.7088 491.0849,-719.8262 494.936,-709.9561 487.9404,-709.7088"/>
</g>
<!-- 9 -->
<g id="Rnode9" class="node">
<title>9</title>
<ellipse fill="none" stroke="#000000" cx="709.1459" cy="-306" rx="53.0913" ry="18"/>
<text text-anchor="middle" x="709.1459" y="-302.3" font-family="Times,serif" font-size="14.00" fill="#000000">BQP/mpoly</text>
</g>
<!-- 8&#45;&gt;9 -->
<g id="edge67" class="edge">
<title>8&#45;&gt;9</title>
<path fill="none" stroke="#000000" d="M405.4229,-238.689C454.2007,-247.2486 559.4755,-266.5147 647.1459,-288 651.1874,-288.9904 655.3606,-290.0722 659.5423,-291.1979"/>
<polygon fill="#000000" stroke="#000000" points="658.6862,-294.5924 669.2572,-293.8821 660.5505,-287.8452 658.6862,-294.5924"/>
</g>
<!-- 22 -->
<g id="Rnode22" class="node">
<title>22</title>
<ellipse fill="none" stroke="#000000" cx="179.1459" cy="-306" rx="42.7926" ry="18"/>
<text text-anchor="middle" x="179.1459" y="-302.3" font-family="Times,serif" font-size="14.00" fill="#000000">NIQSZK</text>
</g>
<!-- 8&#45;&gt;22 -->
<g id="edge70" class="edge">
<title>8&#45;&gt;22</title>
<path fill="none" stroke="#000000" d="M353.7318,-243.0038C345.885,-245.8882 337.1519,-249.0885 329.1459,-252 292.9234,-265.173 251.7228,-279.9935 221.6786,-290.7712"/>
<polygon fill="#000000" stroke="#000000" points="220.1724,-287.5929 211.9407,-294.263 222.5352,-294.1821 220.1724,-287.5929"/>
</g>
<!-- 35 -->
<g id="Rnode35" class="node">
<title>35</title>
<ellipse fill="none" stroke="#000000" cx="378.1459" cy="-306" rx="37.8943" ry="18"/>
<text text-anchor="middle" x="378.1459" y="-302.3" font-family="Times,serif" font-size="14.00" fill="#000000">QCMA</text>
</g>
<!-- 8&#45;&gt;35 -->
<g id="edge69" class="edge">
<title>8&#45;&gt;35</title>
<path fill="none" stroke="#000000" d="M378.1459,-252.1686C378.1459,-259.869 378.1459,-269.0257 378.1459,-277.5834"/>
<polygon fill="#000000" stroke="#000000" points="374.646,-277.5867 378.1459,-287.5867 381.646,-277.5868 374.646,-277.5867"/>
</g>
<!-- 10 -->
<g id="Rnode10" class="node">
<title>10</title>
<ellipse fill="none" stroke="#000000" cx="686.1459" cy="-378" rx="50.0912" ry="18"/>
<text text-anchor="middle" x="686.1459" y="-374.3" font-family="Times,serif" font-size="14.00" fill="#000000">BQP/qpoly</text>
</g>
<!-- 9&#45;&gt;10 -->
<g id="edge45" class="edge">
<title>9&#45;&gt;10</title>
<path fill="none" stroke="#000000" d="M703.342,-324.1686C700.7894,-332.1594 697.7359,-341.7181 694.9151,-350.5486"/>
<polygon fill="#000000" stroke="#000000" points="691.5772,-349.4957 691.8682,-360.0866 698.2453,-351.6259 691.5772,-349.4957"/>
</g>
<!-- 36 -->
<g id="Rnode36" class="node">
<title>36</title>
<ellipse fill="none" stroke="#000000" cx="555.1459" cy="-450" rx="59.5901" ry="18"/>
<text text-anchor="middle" x="555.1459" y="-446.3" font-family="Times,serif" font-size="14.00" fill="#000000">QCMA/qpoly</text>
</g>
<!-- 10&#45;&gt;36 -->
<g id="edge28" class="edge">
<title>10&#45;&gt;36</title>
<path fill="none" stroke="#000000" d="M658.684,-393.0936C639.6004,-403.5823 613.9243,-417.6943 592.9159,-429.2409"/>
<polygon fill="#000000" stroke="#000000" points="591.0101,-426.2945 583.9324,-434.1784 594.3818,-432.429 591.0101,-426.2945"/>
</g>
<!-- 11 -->
<g id="Rnode11" class="node">
<title>11</title>
<ellipse fill="none" stroke="#000000" cx="364.1459" cy="-1098" rx="27" ry="18"/>
<text text-anchor="middle" x="364.1459" y="-1094.3" font-family="Times,serif" font-size="14.00" fill="#000000">CH</text>
</g>
<!-- 31 -->
<g id="Rnode31" class="node">
<title>31</title>
<ellipse fill="none" stroke="#000000" cx="298.1459" cy="-1170" rx="42.7926" ry="18"/>
<text text-anchor="middle" x="298.1459" y="-1166.3" font-family="Times,serif" font-size="14.00" fill="#000000">PSPACE</text>
</g>
<!-- 11&#45;&gt;31 -->
<g id="edge38" class="edge">
<title>11&#45;&gt;31</title>
<path fill="none" stroke="#000000" d="M349.8249,-1113.6229C341.2217,-1123.0082 330.0931,-1135.1485 320.3676,-1145.7582"/>
<polygon fill="#000000" stroke="#000000" points="317.7673,-1143.4153 313.59,-1153.1519 322.9273,-1148.1454 317.7673,-1143.4153"/>
</g>
<!-- 12 -->
<g id="Rnode12" class="node">
<title>12</title>
<ellipse fill="none" stroke="#000000" cx="267.1459" cy="-522" rx="43.5923" ry="18"/>
<text text-anchor="middle" x="267.1459" y="-518.3" font-family="Times,serif" font-size="14.00" fill="#000000">Delta_3P</text>
</g>
<!-- 28 -->
<g id="Rnode28" class="node">
<title>28</title>
<ellipse fill="none" stroke="#000000" cx="272.1459" cy="-594" rx="27" ry="18"/>
<text text-anchor="middle" x="272.1459" y="-590.3" font-family="Times,serif" font-size="14.00" fill="#000000">PH</text>
</g>
<!-- 12&#45;&gt;28 -->
<g id="edge31" class="edge">
<title>12&#45;&gt;28</title>
<path fill="none" stroke="#000000" d="M268.4076,-540.1686C268.9424,-547.869 269.5782,-557.0257 270.1725,-565.5834"/>
<polygon fill="#000000" stroke="#000000" points="266.6827,-565.8533 270.8672,-575.5867 273.6659,-565.3683 266.6827,-565.8533"/>
</g>
<!-- 13 -->
<g id="Rnode13" class="node">
<title>13</title>
<ellipse fill="none" stroke="#000000" cx="226.1459" cy="-1314" rx="27.0966" ry="18"/>
<text text-anchor="middle" x="226.1459" y="-1310.3" font-family="Times,serif" font-size="14.00" fill="#000000">EXP</text>
</g>
<!-- 19 -->
<g id="Rnode19" class="node">
<title>19</title>
<ellipse fill="none" stroke="#000000" cx="225.1459" cy="-1386" rx="33.5952" ry="18"/>
<text text-anchor="middle" x="225.1459" y="-1382.3" font-family="Times,serif" font-size="14.00" fill="#000000">NEXP</text>
</g>
<!-- 13&#45;&gt;19 -->
<g id="edge86" class="edge">
<title>13&#45;&gt;19</title>
<path fill="none" stroke="#000000" d="M225.8936,-1332.1686C225.7866,-1339.869 225.6594,-1349.0257 225.5406,-1357.5834"/>
<polygon fill="#000000" stroke="#000000" points="222.041,-1357.5391 225.4016,-1367.5867 229.0403,-1357.6363 222.041,-1357.5391"/>
</g>
<!-- 14 -->
<g id="Rnode14" class="node">
<title>14</title>
<ellipse fill="none" stroke="#000000" cx="224.1459" cy="-1458" rx="42.7926" ry="18"/>
<text text-anchor="middle" x="224.1459" y="-1454.3" font-family="Times,serif" font-size="14.00" fill="#000000">EXP^NP</text>
</g>
<!-- 48 -->
<g id="Rnode48" class="node">
<title>48</title>
<ellipse fill="none" stroke="#000000" cx="224.1459" cy="-1530" rx="27" ry="18"/>
<text text-anchor="middle" x="224.1459" y="-1526.3" font-family="Times,serif" font-size="14.00" fill="#000000">RE</text>
</g>
<!-- 14&#45;&gt;48 -->
<g id="edge30" class="edge">
<title>14&#45;&gt;48</title>
<path fill="none" stroke="#000000" d="M224.1459,-1476.1686C224.1459,-1483.869 224.1459,-1493.0257 224.1459,-1501.5834"/>
<polygon fill="#000000" stroke="#000000" points="220.646,-1501.5867 224.1459,-1511.5867 227.646,-1501.5868 220.646,-1501.5867"/>
</g>
<!-- 15 -->
<g id="Rnode15" class="node">
<title>15</title>
<ellipse fill="none" stroke="#000000" cx="226.1459" cy="-1242" rx="42.7926" ry="18"/>
<text text-anchor="middle" x="226.1459" y="-1238.3" font-family="Times,serif" font-size="14.00" fill="#000000">EXP_plo</text>
</g>
<!-- 15&#45;&gt;13 -->
<g id="edge51" class="edge">
<title>15&#45;&gt;13</title>
<path fill="none" stroke="#000000" d="M226.1459,-1260.1686C226.1459,-1267.869 226.1459,-1277.0257 226.1459,-1285.5834"/>
<polygon fill="#000000" stroke="#000000" points="222.646,-1285.5867 226.1459,-1295.5867 229.646,-1285.5868 222.646,-1285.5867"/>
</g>
<!-- 21 -->
<g id="Rnode21" class="node">
<title>21</title>
<ellipse fill="none" stroke="#000000" cx="131.1459" cy="-1314" rx="49.2915" ry="18"/>
<text text-anchor="middle" x="131.1459" y="-1310.3" font-family="Times,serif" font-size="14.00" fill="#000000">NEXP_plo</text>
</g>
<!-- 15&#45;&gt;21 -->
<g id="edge50" class="edge">
<title>15&#45;&gt;21</title>
<path fill="none" stroke="#000000" d="M205.0623,-1257.9791C192.0848,-1267.8147 175.25,-1280.5737 160.9252,-1291.4304"/>
<polygon fill="#000000" stroke="#000000" points="158.6848,-1288.7367 152.8292,-1297.5664 162.913,-1294.3155 158.6848,-1288.7367"/>
</g>
<!-- 16 -->
<g id="Rnode16" class="node">
<title>16</title>
<ellipse fill="none" stroke="#000000" cx="32.1459" cy="-1026" rx="27" ry="18"/>
<text text-anchor="middle" x="32.1459" y="-1022.3" font-family="Times,serif" font-size="14.00" fill="#000000">IP</text>
</g>
<!-- 17 -->
<g id="Rnode17" class="node">
<title>17</title>
<ellipse fill="none" stroke="#000000" cx="31.1459" cy="-1098" rx="27" ry="18"/>
<text text-anchor="middle" x="31.1459" y="-1094.3" font-family="Times,serif" font-size="14.00" fill="#000000">MIP</text>
</g>
<!-- 16&#45;&gt;17 -->
<g id="edge71" class="edge">
<title>16&#45;&gt;17</title>
<path fill="none" stroke="#0000ff" d="M31.8936,-1044.1686C31.7866,-1051.869 31.6594,-1061.0257 31.5406,-1069.5834"/>
<polygon fill="#0000ff" stroke="#0000ff" points="28.041,-1069.5391 31.4016,-1079.5867 35.0403,-1069.6363 28.041,-1069.5391"/>
</g>
<!-- 37 -->
<g id="Rnode37" class="node">
<title>37</title>
<ellipse fill="none" stroke="#000000" cx="103.1459" cy="-1098" rx="27" ry="18"/>
<text text-anchor="middle" x="103.1459" y="-1094.3" font-family="Times,serif" font-size="14.00" fill="#000000">QIP</text>
</g>
<!-- 16&#45;&gt;37 -->
<g id="edge72" class="edge">
<title>16&#45;&gt;37</title>
<path fill="none" stroke="#0000ff" d="M47.2032,-1041.2693C56.9929,-1051.197 69.9291,-1064.3153 80.8956,-1075.4363"/>
<polygon fill="#0000ff" stroke="#0000ff" points="78.5967,-1078.0898 88.1103,-1082.7527 83.581,-1073.1748 78.5967,-1078.0898"/>
</g>
<!-- 44 -->
<g id="Rnode44" class="node">
<title>44</title>
<ellipse fill="none" stroke="#000000" cx="46.1459" cy="-1170" rx="46.2923" ry="18"/>
<text text-anchor="middle" x="46.1459" y="-1166.3" font-family="Times,serif" font-size="14.00" fill="#000000">QMIP_ne</text>
</g>
<!-- 17&#45;&gt;44 -->
<g id="edge52" class="edge">
<title>17&#45;&gt;44</title>
<path fill="none" stroke="#0000ff" d="M34.931,-1116.1686C36.5353,-1123.869 38.4429,-1133.0257 40.2258,-1141.5834"/>
<polygon fill="#0000ff" stroke="#0000ff" points="36.8438,-1142.5108 42.3098,-1151.5867 43.6966,-1141.0831 36.8438,-1142.5108"/>
</g>
<!-- 33 -->
<g id="Rnode33" class="node">
<title>33</title>
<ellipse fill="none" stroke="#000000" cx="377.1459" cy="-1026" rx="48.1917" ry="18"/>
<text text-anchor="middle" x="377.1459" y="-1022.3" font-family="Times,serif" font-size="14.00" fill="#000000">P^Sharp&#45;P</text>
</g>
<!-- 18&#45;&gt;33 -->
<g id="edge75" class="edge">
<title>18&#45;&gt;33</title>
<path fill="none" stroke="#000000" d="M379.3889,-972.1686C379.068,-979.869 378.6865,-989.0257 378.3299,-997.5834"/>
<polygon fill="#000000" stroke="#000000" points="374.8326,-997.4497 377.9131,-1007.5867 381.8265,-997.7411 374.8326,-997.4497"/>
</g>
<!-- 19&#45;&gt;14 -->
<g id="edge41" class="edge">
<title>19&#45;&gt;14</title>
<path fill="none" stroke="#000000" d="M224.8936,-1404.1686C224.7866,-1411.869 224.6594,-1421.0257 224.5406,-1429.5834"/>
<polygon fill="#000000" stroke="#000000" points="221.041,-1429.5391 224.4016,-1439.5867 228.0403,-1429.6363 221.041,-1429.5391"/>
</g>
<!-- 20 -->
<g id="Rnode20" class="node">
<title>20</title>
<ellipse fill="none" stroke="#000000" cx="337.1459" cy="-1458" rx="51.9908" ry="18"/>
<text text-anchor="middle" x="337.1459" y="-1454.3" font-family="Times,serif" font-size="14.00" fill="#000000">NEXP/poly</text>
</g>
<!-- 19&#45;&gt;20 -->
<g id="edge40" class="edge">
<title>19&#45;&gt;20</title>
<path fill="none" stroke="#000000" d="M246.7406,-1399.8823C262.874,-1410.2538 285.2277,-1424.624 303.6703,-1436.48"/>
<polygon fill="#000000" stroke="#000000" points="301.7936,-1439.4343 312.0981,-1441.8978 305.5789,-1433.5461 301.7936,-1439.4343"/>
</g>
<!-- 20&#45;&gt;5 -->
<g id="edge35" class="edge">
<title>20&#45;&gt;5</title>
<path fill="none" stroke="#000000" d="M329.9615,-1476.0445C314.8365,-1514.033 279.6431,-1602.4255 261.8513,-1647.1121"/>
<polygon fill="#000000" stroke="#000000" points="258.5767,-1645.875 258.1293,-1656.4604 265.0801,-1648.4644 258.5767,-1645.875"/>
</g>
<!-- 21&#45;&gt;4 -->
<g id="edge18" class="edge">
<title>21&#45;&gt;4</title>
<path fill="none" stroke="#000000" d="M131.8142,-1332.0445C133.2054,-1369.6062 136.4217,-1456.4459 138.0937,-1501.5897"/>
<polygon fill="#000000" stroke="#000000" points="134.6061,-1501.9914 138.4739,-1511.8549 141.6013,-1501.7322 134.6061,-1501.9914"/>
</g>
<!-- 21&#45;&gt;19 -->
<g id="edge19" class="edge">
<title>21&#45;&gt;19</title>
<path fill="none" stroke="#0000ff" d="M152.476,-1330.3379C165.8791,-1340.6042 183.2999,-1353.9478 197.7247,-1364.9965"/>
<polygon fill="#0000ff" stroke="#0000ff" points="195.7515,-1367.8939 205.8186,-1371.1961 200.0081,-1362.3367 195.7515,-1367.8939"/>
</g>
<!-- 47 -->
<g id="Rnode47" class="node">
<title>47</title>
<ellipse fill="none" stroke="#000000" cx="108.1459" cy="-378" rx="33.5952" ry="18"/>
<text text-anchor="middle" x="108.1459" y="-374.3" font-family="Times,serif" font-size="14.00" fill="#000000">QSZK</text>
</g>
<!-- 22&#45;&gt;47 -->
<g id="edge15" class="edge">
<title>22&#45;&gt;47</title>
<path fill="none" stroke="#000000" d="M162.6786,-322.6992C153.3168,-332.1929 141.4478,-344.229 131.175,-354.6466"/>
<polygon fill="#000000" stroke="#000000" points="128.5648,-352.3087 124.0355,-361.8866 133.5491,-357.2238 128.5648,-352.3087"/>
</g>
<!-- 23 -->
<g id="Rnode23" class="node">
<title>23</title>
<ellipse fill="none" stroke="#000000" cx="237.1459" cy="-90" rx="36.2938" ry="18"/>
<text text-anchor="middle" x="237.1459" y="-86.3" font-family="Times,serif" font-size="14.00" fill="#000000">NISZK</text>
</g>
<!-- 23&#45;&gt;22 -->
<g id="edge74" class="edge">
<title>23&#45;&gt;22</title>
<path fill="none" stroke="#0000ff" d="M222.9714,-106.8824C215.2466,-117.0099 206.2466,-130.5099 201.1459,-144 184.2809,-188.604 180.0768,-244.4366 179.1791,-277.5485"/>
<polygon fill="#0000ff" stroke="#0000ff" points="175.6741,-277.7944 178.988,-287.8576 182.6729,-277.9243 175.6741,-277.7944"/>
</g>
<!-- 52 -->
<g id="Rnode52" class="node">
<title>52</title>
<ellipse fill="none" stroke="#000000" cx="237.1459" cy="-162" rx="27.0966" ry="18"/>
<text text-anchor="middle" x="237.1459" y="-158.3" font-family="Times,serif" font-size="14.00" fill="#000000">SZK</text>
</g>
<!-- 23&#45;&gt;52 -->
<g id="edge73" class="edge">
<title>23&#45;&gt;52</title>
<path fill="none" stroke="#000000" d="M237.1459,-108.1686C237.1459,-115.869 237.1459,-125.0257 237.1459,-133.5834"/>
<polygon fill="#000000" stroke="#000000" points="233.646,-133.5867 237.1459,-143.5867 240.646,-133.5868 233.646,-133.5867"/>
</g>
<!-- 24 -->
<g id="Rnode24" class="node">
<title>24</title>
<ellipse fill="none" stroke="#000000" cx="293.1459" cy="-234" rx="27" ry="18"/>
<text text-anchor="middle" x="293.1459" y="-230.3" font-family="Times,serif" font-size="14.00" fill="#000000">NP</text>
</g>
<!-- 24&#45;&gt;1 -->
<g id="edge58" class="edge">
<title>24&#45;&gt;1</title>
<path fill="none" stroke="#00ff00" d="M316.4019,-243.3174C324.2023,-246.2823 332.9911,-249.4508 341.1459,-252 389.224,-267.0291 444.3563,-280.8626 486.6195,-290.7653"/>
<polygon fill="#00ff00" stroke="#00ff00" points="485.9927,-294.2129 496.5257,-293.0698 487.5788,-287.3949 485.9927,-294.2129"/>
</g>
<!-- 24&#45;&gt;16 -->
<g id="edge57" class="edge">
<title>24&#45;&gt;16</title>
<path fill="none" stroke="#0000ff" d="M266.1974,-236.2365C199.5123,-243.3894 32.1459,-271.9093 32.1459,-378 32.1459,-378 32.1459,-378 32.1459,-882 32.1459,-922.124 32.1459,-968.5369 32.1459,-997.5823"/>
<polygon fill="#0000ff" stroke="#0000ff" points="28.646,-997.8146 32.1459,-1007.8146 35.646,-997.8147 28.646,-997.8146"/>
</g>
<!-- 34 -->
<g id="Rnode34" class="node">
<title>34</title>
<ellipse fill="none" stroke="#000000" cx="281.1459" cy="-306" rx="41.6928" ry="18"/>
<text text-anchor="middle" x="281.1459" y="-302.3" font-family="Times,serif" font-size="14.00" fill="#000000">PostBPP</text>
</g>
<!-- 24&#45;&gt;34 -->
<g id="edge55" class="edge">
<title>24&#45;&gt;34</title>
<path fill="none" stroke="#000000" d="M290.1178,-252.1686C288.8344,-259.869 287.3083,-269.0257 285.882,-277.5834"/>
<polygon fill="#000000" stroke="#000000" points="282.4065,-277.1474 284.2148,-287.5867 289.3112,-278.2982 282.4065,-277.1474"/>
</g>
<!-- 24&#45;&gt;35 -->
<g id="edge56" class="edge">
<title>24&#45;&gt;35</title>
<path fill="none" stroke="#0000ff" d="M309.9392,-248.2249C321.9107,-258.3655 338.2412,-272.1984 351.9215,-283.7864"/>
<polygon fill="#0000ff" stroke="#0000ff" points="349.7243,-286.5121 359.617,-290.3049 354.2487,-281.1708 349.7243,-286.5121"/>
</g>
<!-- 25&#45;&gt;36 -->
<g id="edge23" class="edge">
<title>25&#45;&gt;36</title>
<path fill="none" stroke="#0000ff" d="M555.1459,-396.1686C555.1459,-403.869 555.1459,-413.0257 555.1459,-421.5834"/>
<polygon fill="#0000ff" stroke="#0000ff" points="551.646,-421.5867 555.1459,-431.5867 558.646,-421.5868 551.646,-421.5867"/>
</g>
<!-- 26 -->
<g id="Rnode26" class="node">
<title>26</title>
<ellipse fill="none" stroke="#000000" cx="354.1459" cy="-18" rx="27" ry="18"/>
<text text-anchor="middle" x="354.1459" y="-14.3" font-family="Times,serif" font-size="14.00" fill="#000000">P</text>
</g>
<!-- 26&#45;&gt;8 -->
<g id="edge63" class="edge">
<title>26&#45;&gt;8</title>
<path fill="none" stroke="#000000" d="M356.1509,-36.0445C360.3332,-73.6856 370.0141,-160.8133 375.021,-205.8754"/>
<polygon fill="#000000" stroke="#000000" points="371.5468,-206.3026 376.1298,-215.8549 378.504,-205.5296 371.5468,-206.3026"/>
</g>
<!-- 26&#45;&gt;23 -->
<g id="edge64" class="edge">
<title>26&#45;&gt;23</title>
<path fill="none" stroke="#000000" d="M334.2985,-30.2138C316.3857,-41.237 289.7214,-57.6458 268.8563,-70.4859"/>
<polygon fill="#000000" stroke="#000000" points="266.9938,-67.5224 260.3116,-75.7442 270.6625,-73.484 266.9938,-67.5224"/>
</g>
<!-- 27 -->
<g id="Rnode27" class="node">
<title>27</title>
<ellipse fill="none" stroke="#000000" cx="555.1459" cy="-234" rx="33.5952" ry="18"/>
<text text-anchor="middle" x="555.1459" y="-230.3" font-family="Times,serif" font-size="14.00" fill="#000000">P/poly</text>
</g>
<!-- 26&#45;&gt;27 -->
<g id="edge61" class="edge">
<title>26&#45;&gt;27</title>
<path fill="none" stroke="#000000" d="M368.6013,-33.5342C403.332,-70.8567 491.6539,-165.7698 533.0732,-210.28"/>
<polygon fill="#000000" stroke="#000000" points="530.6302,-212.7926 540.0048,-217.7289 535.7547,-208.0239 530.6302,-212.7926"/>
</g>
<!-- 55 -->
<g id="Rnode55" class="node">
<title>55</title>
<ellipse fill="none" stroke="#000000" cx="317.1459" cy="-162" rx="27" ry="18"/>
<text text-anchor="middle" x="317.1459" y="-158.3" font-family="Times,serif" font-size="14.00" fill="#000000">UP</text>
</g>
<!-- 26&#45;&gt;55 -->
<g id="edge62" class="edge">
<title>26&#45;&gt;55</title>
<path fill="none" stroke="#000000" d="M349.5346,-35.9465C343.22,-60.5226 331.8176,-104.8992 324.3654,-133.9026"/>
<polygon fill="#000000" stroke="#000000" points="320.9141,-133.2709 321.8153,-143.8273 327.6939,-135.0129 320.9141,-133.2709"/>
</g>
<!-- 27&#45;&gt;1 -->
<g id="edge2" class="edge">
<title>27&#45;&gt;1</title>
<path fill="none" stroke="#000000" d="M555.1459,-252.1686C555.1459,-259.869 555.1459,-269.0257 555.1459,-277.5834"/>
<polygon fill="#000000" stroke="#000000" points="551.646,-277.5867 555.1459,-287.5867 558.646,-277.5868 551.646,-277.5867"/>
</g>
<!-- 27&#45;&gt;9 -->
<g id="edge1" class="edge">
<title>27&#45;&gt;9</title>
<path fill="none" stroke="#000000" d="M580.5759,-245.8893C604.5231,-257.0854 640.7864,-274.0397 668.7021,-287.0912"/>
<polygon fill="#000000" stroke="#000000" points="667.2781,-290.289 677.8193,-291.3538 670.2428,-283.9479 667.2781,-290.289"/>
</g>
<!-- 51 -->
<g id="Rnode51" class="node">
<title>51</title>
<ellipse fill="none" stroke="#000000" cx="409.1459" cy="-666" rx="27" ry="18"/>
<text text-anchor="middle" x="409.1459" y="-662.3" font-family="Times,serif" font-size="14.00" fill="#000000">SPP</text>
</g>
<!-- 28&#45;&gt;51 -->
<g id="edge34" class="edge">
<title>28&#45;&gt;51</title>
<path fill="none" stroke="#000000" d="M293.5522,-605.25C316.4748,-617.2969 353.0343,-636.5107 378.8925,-650.1004"/>
<polygon fill="#000000" stroke="#000000" points="377.4097,-653.275 387.89,-654.829 380.6662,-647.0786 377.4097,-653.275"/>
</g>
<!-- 29&#45;&gt;18 -->
<g id="edge46" class="edge">
<title>29&#45;&gt;18</title>
<path fill="none" stroke="#000000" d="M430.2589,-897.6229C421.6206,-907.341 410.3566,-920.013 400.6962,-930.8809"/>
<polygon fill="#000000" stroke="#000000" points="398.0336,-928.6082 394.0059,-938.4076 403.2655,-933.2587 398.0336,-928.6082"/>
</g>
<!-- 30 -->
<g id="Rnode30" class="node">
<title>30</title>
<ellipse fill="none" stroke="#000000" cx="463.1459" cy="-954" rx="38.1938" ry="18"/>
<text text-anchor="middle" x="463.1459" y="-950.3" font-family="Times,serif" font-size="14.00" fill="#000000">PP/poly</text>
</g>
<!-- 29&#45;&gt;30 -->
<g id="edge47" class="edge">
<title>29&#45;&gt;30</title>
<path fill="none" stroke="#000000" d="M448.8425,-899.7978C450.9277,-907.6995 453.4319,-917.189 455.7581,-926.0041"/>
<polygon fill="#000000" stroke="#000000" points="452.4356,-927.1309 458.3713,-935.9069 459.2039,-925.3448 452.4356,-927.1309"/>
</g>
<!-- 32 -->
<g id="Rnode32" class="node">
<title>32</title>
<ellipse fill="none" stroke="#000000" cx="401.1459" cy="-1242" rx="61.1893" ry="18"/>
<text text-anchor="middle" x="401.1459" y="-1238.3" font-family="Times,serif" font-size="14.00" fill="#000000">PSPACE/poly</text>
</g>
<!-- 30&#45;&gt;32 -->
<g id="edge81" class="edge">
<title>30&#45;&gt;32</title>
<path fill="none" stroke="#000000" d="M459.2675,-972.0157C448.7856,-1020.7061 419.8312,-1155.2039 407.186,-1213.9427"/>
<polygon fill="#000000" stroke="#000000" points="403.7058,-1213.4785 405.0228,-1223.9911 410.5491,-1214.9517 403.7058,-1213.4785"/>
</g>
<!-- 31&#45;&gt;15 -->
<g id="edge48" class="edge">
<title>31&#45;&gt;15</title>
<path fill="none" stroke="#000000" d="M281.4467,-1186.6992C272.0867,-1196.0592 260.2554,-1207.8905 249.9404,-1218.2055"/>
<polygon fill="#000000" stroke="#000000" points="247.3508,-1215.8454 242.7546,-1225.3913 252.3005,-1220.7951 247.3508,-1215.8454"/>
</g>
<!-- 31&#45;&gt;32 -->
<g id="edge49" class="edge">
<title>31&#45;&gt;32</title>
<path fill="none" stroke="#000000" d="M320.242,-1185.4458C334.4064,-1195.3472 353.0337,-1208.3682 368.8438,-1219.4199"/>
<polygon fill="#000000" stroke="#000000" points="367.0898,-1222.4642 377.2912,-1225.3249 371.1004,-1216.7269 367.0898,-1222.4642"/>
</g>
<!-- 32&#45;&gt;20 -->
<g id="edge33" class="edge">
<title>32&#45;&gt;20</title>
<path fill="none" stroke="#000000" d="M395.7994,-1260.0445C384.6229,-1297.765 358.7219,-1385.1812 345.3948,-1430.1601"/>
<polygon fill="#000000" stroke="#000000" points="342.0074,-1429.2726 342.5222,-1439.8549 348.719,-1431.2613 342.0074,-1429.2726"/>
</g>
<!-- 33&#45;&gt;11 -->
<g id="edge32" class="edge">
<title>33&#45;&gt;11</title>
<path fill="none" stroke="#000000" d="M373.8655,-1044.1686C372.4537,-1051.9875 370.7709,-1061.3077 369.2055,-1069.9779"/>
<polygon fill="#000000" stroke="#000000" points="365.7129,-1069.6238 367.3803,-1080.0866 372.6015,-1070.8676 365.7129,-1069.6238"/>
</g>
<!-- 53 -->
<g id="Rnode53" class="node">
<title>53</title>
<ellipse fill="none" stroke="#000000" cx="272.1459" cy="-378" rx="29.4969" ry="18"/>
<text text-anchor="middle" x="272.1459" y="-374.3" font-family="Times,serif" font-size="14.00" fill="#000000">S_2P</text>
</g>
<!-- 34&#45;&gt;53 -->
<g id="edge5" class="edge">
<title>34&#45;&gt;53</title>
<path fill="none" stroke="#000000" d="M278.8748,-324.1686C277.9123,-331.869 276.7677,-341.0257 275.698,-349.5834"/>
<polygon fill="#000000" stroke="#000000" points="272.215,-349.2298 274.4476,-359.5867 279.161,-350.0981 272.215,-349.2298"/>
</g>
<!-- 35&#45;&gt;36 -->
<g id="edge60" class="edge">
<title>35&#45;&gt;36</title>
<path fill="none" stroke="#0000ff" d="M397.4249,-321.6846C428.5787,-347.0301 490.1578,-397.1283 526.4704,-426.6708"/>
<polygon fill="#0000ff" stroke="#0000ff" points="524.2858,-429.4055 534.2518,-433.0014 528.7034,-423.9755 524.2858,-429.4055"/>
</g>
<!-- 39 -->
<g id="Rnode39" class="node">
<title>39</title>
<ellipse fill="none" stroke="#000000" cx="332.1459" cy="-738" rx="31.6951" ry="18"/>
<text text-anchor="middle" x="332.1459" y="-734.3" font-family="Times,serif" font-size="14.00" fill="#000000">QMA</text>
</g>
<!-- 35&#45;&gt;39 -->
<g id="edge59" class="edge">
<title>35&#45;&gt;39</title>
<path fill="none" stroke="#0000ff" d="M376.2279,-324.0125C369.0678,-391.2553 343.8673,-627.9208 335.1443,-709.8415"/>
<polygon fill="#0000ff" stroke="#0000ff" points="331.6507,-709.5962 334.0721,-719.9106 338.6113,-710.3374 331.6507,-709.5962"/>
</g>
<!-- 41 -->
<g id="Rnode41" class="node">
<title>41</title>
<ellipse fill="none" stroke="#000000" cx="555.1459" cy="-810" rx="57.3905" ry="18"/>
<text text-anchor="middle" x="555.1459" y="-806.3" font-family="Times,serif" font-size="14.00" fill="#000000">QMA/mpoly</text>
</g>
<!-- 36&#45;&gt;41 -->
<g id="edge9" class="edge">
<title>36&#45;&gt;41</title>
<path fill="none" stroke="#0000ff" d="M555.1459,-468.1854C555.1459,-495.5017 555.1459,-548.75 555.1459,-594 555.1459,-594 555.1459,-594 555.1459,-666 555.1459,-706.124 555.1459,-752.5369 555.1459,-781.5823"/>
<polygon fill="#0000ff" stroke="#0000ff" points="551.646,-781.8146 555.1459,-791.8146 558.646,-781.8147 551.646,-781.8146"/>
</g>
<!-- 37&#45;&gt;31 -->
<g id="edge42" class="edge">
<title>37&#45;&gt;31</title>
<path fill="none" stroke="#000000" d="M127.0567,-1106.8286C159.2147,-1118.7023 216.9073,-1140.0042 256.3296,-1154.5601"/>
<polygon fill="#000000" stroke="#000000" points="255.3387,-1157.9252 265.932,-1158.1056 257.7633,-1151.3585 255.3387,-1157.9252"/>
</g>
<!-- 43 -->
<g id="Rnode43" class="node">
<title>43</title>
<ellipse fill="none" stroke="#000000" cx="120.1459" cy="-1242" rx="44.393" ry="18"/>
<text text-anchor="middle" x="120.1459" y="-1238.3" font-family="Times,serif" font-size="14.00" fill="#000000">QMIP_le</text>
</g>
<!-- 37&#45;&gt;43 -->
<g id="edge44" class="edge">
<title>37&#45;&gt;43</title>
<path fill="none" stroke="#0000ff" d="M105.2646,-1115.9465C108.1532,-1140.4148 113.3589,-1184.5104 116.7837,-1213.5201"/>
<polygon fill="#0000ff" stroke="#0000ff" points="113.3522,-1214.3066 118.0005,-1223.8273 120.3039,-1213.4859 113.3522,-1214.3066"/>
</g>
<!-- 37&#45;&gt;44 -->
<g id="edge43" class="edge">
<title>37&#45;&gt;44</title>
<path fill="none" stroke="#0000ff" d="M90.4958,-1113.9791C83.3529,-1123.0017 74.2625,-1134.4843 66.1737,-1144.7018"/>
<polygon fill="#0000ff" stroke="#0000ff" points="63.4206,-1142.5406 59.9577,-1152.5536 68.9089,-1146.8856 63.4206,-1142.5406"/>
</g>
<!-- 38 -->
<g id="Rnode38" class="node">
<title>38</title>
<ellipse fill="none" stroke="#000000" cx="95.1459" cy="-810" rx="35.194" ry="18"/>
<text text-anchor="middle" x="95.1459" y="-806.3" font-family="Times,serif" font-size="14.00" fill="#000000">QIP(2)</text>
</g>
<!-- 38&#45;&gt;37 -->
<g id="edge8" class="edge">
<title>38&#45;&gt;37</title>
<path fill="none" stroke="#0000ff" d="M95.6463,-828.0157C96.9989,-876.7061 100.7349,-1011.2039 102.3665,-1069.9427"/>
<polygon fill="#0000ff" stroke="#0000ff" points="98.8692,-1070.0922 102.6457,-1079.9911 105.8665,-1069.8978 98.8692,-1070.0922"/>
</g>
<!-- 39&#45;&gt;7 -->
<g id="edge14" class="edge">
<title>39&#45;&gt;7</title>
<path fill="none" stroke="#0000ff" d="M353.2122,-751.5426C370.1702,-762.4442 394.2442,-777.9203 413.3622,-790.2105"/>
<polygon fill="#0000ff" stroke="#0000ff" points="411.7201,-793.3157 422.0246,-795.7791 415.5054,-787.4274 411.7201,-793.3157"/>
</g>
<!-- 39&#45;&gt;38 -->
<g id="edge12" class="edge">
<title>39&#45;&gt;38</title>
<path fill="none" stroke="#0000ff" d="M304.0282,-746.5421C262.1313,-759.2703 183.1226,-783.2729 135.1973,-797.8325"/>
<polygon fill="#0000ff" stroke="#0000ff" points="134.0177,-794.5328 125.4669,-800.7886 136.0525,-801.2306 134.0177,-794.5328"/>
</g>
<!-- 40 -->
<g id="Rnode40" class="node">
<title>40</title>
<ellipse fill="none" stroke="#000000" cx="228.1459" cy="-1098" rx="42.4939" ry="18"/>
<text text-anchor="middle" x="228.1459" y="-1094.3" font-family="Times,serif" font-size="14.00" fill="#000000">QMA(2)</text>
</g>
<!-- 39&#45;&gt;40 -->
<g id="edge13" class="edge">
<title>39&#45;&gt;40</title>
<path fill="none" stroke="#0000ff" d="M331.7111,-756.2995C330.6123,-786.6533 326.7439,-849.1145 313.1459,-900 296.0798,-963.8635 262.074,-1033.9024 242.6459,-1071.1622"/>
<polygon fill="#0000ff" stroke="#0000ff" points="239.3761,-1069.8595 237.8093,-1080.3379 245.5685,-1073.1237 239.3761,-1069.8595"/>
</g>
<!-- 39&#45;&gt;41 -->
<g id="edge11" class="edge">
<title>39&#45;&gt;41</title>
<path fill="none" stroke="#0000ff" d="M357.0953,-749.5463C362.3476,-751.8092 367.8901,-754.0752 373.1459,-756 396.8832,-764.6933 457.5212,-782.3573 502.3143,-795.12"/>
<polygon fill="#0000ff" stroke="#0000ff" points="501.6067,-798.5575 512.1827,-797.9256 503.521,-791.8243 501.6067,-798.5575"/>
</g>
<!-- 45 -->
<g id="Rnode45" class="node">
<title>45</title>
<ellipse fill="none" stroke="#000000" cx="264.1459" cy="-810" rx="39.7935" ry="18"/>
<text text-anchor="middle" x="264.1459" y="-806.3" font-family="Times,serif" font-size="14.00" fill="#000000">QRG(1)</text>
</g>
<!-- 39&#45;&gt;45 -->
<g id="edge10" class="edge">
<title>39&#45;&gt;45</title>
<path fill="none" stroke="#000000" d="M317.0545,-753.9791C308.1756,-763.3803 296.7741,-775.4525 286.8302,-785.9813"/>
<polygon fill="#000000" stroke="#000000" points="284.2257,-783.6416 279.904,-793.3149 289.3148,-788.448 284.2257,-783.6416"/>
</g>
<!-- 40&#45;&gt;15 -->
<g id="edge26" class="edge">
<title>40&#45;&gt;15</title>
<path fill="none" stroke="#000000" d="M227.8926,-1116.2377C227.5515,-1140.799 226.941,-1184.7526 226.5397,-1213.6459"/>
<polygon fill="#000000" stroke="#000000" points="223.0365,-1213.8627 226.3972,-1223.9104 230.0358,-1213.96 223.0365,-1213.8627"/>
</g>
<!-- 40&#45;&gt;44 -->
<g id="edge27" class="edge">
<title>40&#45;&gt;44</title>
<path fill="none" stroke="#0000ff" d="M196.859,-1110.3772C166.7956,-1122.2704 121.1648,-1140.3222 87.9888,-1153.4468"/>
<polygon fill="#0000ff" stroke="#0000ff" points="86.5664,-1150.2455 78.5552,-1157.1787 89.1415,-1156.7546 86.5664,-1150.2455"/>
</g>
<!-- 41&#45;&gt;30 -->
<g id="edge24" class="edge">
<title>41&#45;&gt;30</title>
<path fill="none" stroke="#000000" d="M543.8649,-827.6572C527.8454,-852.7313 498.3952,-898.8272 479.8419,-927.8672"/>
<polygon fill="#000000" stroke="#000000" points="476.6663,-926.3368 474.2318,-936.6481 482.5652,-930.1055 476.6663,-926.3368"/>
</g>
<!-- 42 -->
<g id="Rnode42" class="node">
<title>42</title>
<ellipse fill="none" stroke="#000000" cx="573.1459" cy="-954" rx="53.8905" ry="18"/>
<text text-anchor="middle" x="573.1459" y="-950.3" font-family="Times,serif" font-size="14.00" fill="#000000">QMA/qpoly</text>
</g>
<!-- 41&#45;&gt;42 -->
<g id="edge25" class="edge">
<title>41&#45;&gt;42</title>
<path fill="none" stroke="#0000ff" d="M557.4256,-828.2377C560.4958,-852.799 565.99,-896.7526 569.6016,-925.6459"/>
<polygon fill="#0000ff" stroke="#0000ff" points="566.1713,-926.4218 570.8847,-935.9104 573.1172,-925.5535 566.1713,-926.4218"/>
</g>
<!-- 42&#45;&gt;32 -->
<g id="edge36" class="edge">
<title>42&#45;&gt;32</title>
<path fill="none" stroke="#000000" d="M562.3865,-972.0157C533.0662,-1021.1101 451.6458,-1157.4421 417.0384,-1215.3893"/>
<polygon fill="#000000" stroke="#000000" points="414.0238,-1213.6111 411.9012,-1223.9911 420.0336,-1217.2003 414.0238,-1213.6111"/>
</g>
<!-- 43&#45;&gt;21 -->
<g id="edge37" class="edge">
<title>43&#45;&gt;21</title>
<path fill="none" stroke="#0000ff" d="M122.9217,-1260.1686C124.0981,-1267.869 125.497,-1277.0257 126.8045,-1285.5834"/>
<polygon fill="#0000ff" stroke="#0000ff" points="123.3626,-1286.2301 128.3328,-1295.5867 130.2823,-1285.1728 123.3626,-1286.2301"/>
</g>
<!-- 44&#45;&gt;21 -->
<g id="edge54" class="edge">
<title>44&#45;&gt;21</title>
<path fill="none" stroke="#0000ff" d="M47.0381,-1188.1733C48.707,-1207.3095 53.4853,-1237.6984 67.1459,-1260 74.8451,-1272.5694 86.4848,-1283.6529 97.7359,-1292.4558"/>
<polygon fill="#0000ff" stroke="#0000ff" points="95.685,-1295.2923 105.7979,-1298.4513 99.8622,-1289.6753 95.685,-1295.2923"/>
</g>
<!-- 46 -->
<g id="Rnode46" class="node">
<title>46</title>
<ellipse fill="none" stroke="#000000" cx="264.1459" cy="-882" rx="39.7935" ry="18"/>
<text text-anchor="middle" x="264.1459" y="-878.3" font-family="Times,serif" font-size="14.00" fill="#000000">QRG(2)</text>
</g>
<!-- 45&#45;&gt;46 -->
<g id="edge65" class="edge">
<title>45&#45;&gt;46</title>
<path fill="none" stroke="#000000" d="M264.1459,-828.1686C264.1459,-835.869 264.1459,-845.0257 264.1459,-853.5834"/>
<polygon fill="#000000" stroke="#000000" points="260.646,-853.5867 264.1459,-863.5867 267.646,-853.5868 260.646,-853.5867"/>
</g>
<!-- 46&#45;&gt;31 -->
<g id="edge3" class="edge">
<title>46&#45;&gt;31</title>
<path fill="none" stroke="#000000" d="M266.2728,-900.0157C272.0209,-948.7061 287.8991,-1083.2039 294.8336,-1141.9427"/>
<polygon fill="#000000" stroke="#000000" points="291.3715,-1142.4705 296.0199,-1151.9911 298.3232,-1141.6497 291.3715,-1142.4705"/>
</g>
<!-- 47&#45;&gt;38 -->
<g id="edge22" class="edge">
<title>47&#45;&gt;38</title>
<path fill="none" stroke="#000000" d="M100.8939,-395.8462C90.6422,-422.7298 73.1459,-475.4326 73.1459,-522 73.1459,-522 73.1459,-522 73.1459,-666 73.1459,-706.7684 81.8694,-753.2922 88.33,-782.1575"/>
<polygon fill="#000000" stroke="#000000" points="84.9304,-782.9917 90.5875,-791.9498 91.7515,-781.4191 84.9304,-782.9917"/>
</g>
<!-- 48&#45;&gt;3 -->
<g id="edge80" class="edge">
<title>48&#45;&gt;3</title>
<path fill="none" stroke="#000000" d="M224.1459,-1548.1686C224.1459,-1555.869 224.1459,-1565.0257 224.1459,-1573.5834"/>
<polygon fill="#000000" stroke="#000000" points="220.646,-1573.5867 224.1459,-1583.5867 227.646,-1573.5868 220.646,-1573.5867"/>
</g>
<!-- 49 -->
<g id="Rnode49" class="node">
<title>49</title>
<ellipse fill="none" stroke="#000000" cx="165.1459" cy="-450" rx="33.2948" ry="18"/>
<text text-anchor="middle" x="165.1459" y="-446.3" font-family="Times,serif" font-size="14.00" fill="#000000">RG(2)</text>
</g>
<!-- 49&#45;&gt;46 -->
<g id="edge20" class="edge">
<title>49&#45;&gt;46</title>
<path fill="none" stroke="#000000" d="M150.6874,-466.7152C142.9513,-476.787 134.2013,-490.287 130.1459,-504 125.6085,-519.3431 127.8578,-524.1644 130.1459,-540 149.2309,-672.0868 149.7685,-711.6516 215.1459,-828 221.2853,-838.926 230.0043,-849.4772 238.3896,-858.3095"/>
<polygon fill="#000000" stroke="#000000" points="236.0774,-860.9489 245.5993,-865.5949 241.053,-856.025 236.0774,-860.9489"/>
</g>
<!-- 50 -->
<g id="Rnode50" class="node">
<title>50</title>
<ellipse fill="none" stroke="#000000" cx="172.1459" cy="-522" rx="33.2948" ry="18"/>
<text text-anchor="middle" x="172.1459" y="-518.3" font-family="Times,serif" font-size="14.00" fill="#000000">RG(3)</text>
</g>
<!-- 49&#45;&gt;50 -->
<g id="edge21" class="edge">
<title>49&#45;&gt;50</title>
<path fill="none" stroke="#000000" d="M166.9123,-468.1686C167.661,-475.869 168.5512,-485.0257 169.3832,-493.5834"/>
<polygon fill="#000000" stroke="#000000" points="165.9044,-493.9724 170.3557,-503.5867 172.8716,-493.2949 165.9044,-493.9724"/>
</g>
<!-- 50&#45;&gt;15 -->
<g id="edge83" class="edge">
<title>50&#45;&gt;15</title>
<path fill="none" stroke="#000000" d="M169.2451,-540.1304C165.1444,-567.3767 158.1459,-620.5366 158.1459,-666 158.1459,-666 158.1459,-666 158.1459,-1098 158.1459,-1142.9052 185.5186,-1188.795 205.5303,-1216.3439"/>
<polygon fill="#000000" stroke="#000000" points="202.9303,-1218.7112 211.7249,-1224.6194 208.5342,-1214.5164 202.9303,-1218.7112"/>
</g>
<!-- 51&#45;&gt;2 -->
<g id="edge16" class="edge">
<title>51&#45;&gt;2</title>
<path fill="none" stroke="#000000" d="M409.1459,-684.1686C409.1459,-691.869 409.1459,-701.0257 409.1459,-709.5834"/>
<polygon fill="#000000" stroke="#000000" points="405.646,-709.5867 409.1459,-719.5867 412.646,-709.5868 405.646,-709.5867"/>
</g>
<!-- 51&#45;&gt;6 -->
<g id="edge17" class="edge">
<title>51&#45;&gt;6</title>
<path fill="none" stroke="#000000" d="M425.5375,-680.5703C436.7924,-690.5747 451.9528,-704.0506 464.7595,-715.4343"/>
<polygon fill="#000000" stroke="#000000" points="462.5738,-718.1743 472.3732,-722.2021 467.2244,-712.9425 462.5738,-718.1743"/>
</g>
<!-- 52&#45;&gt;24 -->
<g id="edge85" class="edge">
<title>52&#45;&gt;24</title>
<path fill="none" stroke="#000000" d="M249.8532,-178.3379C257.0847,-187.6356 266.2795,-199.4574 274.3335,-209.8127"/>
<polygon fill="#000000" stroke="#000000" points="271.5867,-211.982 280.4889,-217.7267 277.1122,-207.6844 271.5867,-211.982"/>
</g>
<!-- 52&#45;&gt;47 -->
<g id="edge84" class="edge">
<title>52&#45;&gt;47</title>
<path fill="none" stroke="#000000" d="M219.9888,-176.3555C195.386,-197.9387 150.4854,-241.2314 127.1459,-288 117.4893,-307.3503 112.7324,-331.4132 110.3936,-349.788"/>
<polygon fill="#000000" stroke="#000000" points="106.8991,-349.5465 109.2773,-359.8709 113.8566,-350.3169 106.8991,-349.5465"/>
</g>
<!-- 53&#45;&gt;45 -->
<g id="edge78" class="edge">
<title>53&#45;&gt;45</title>
<path fill="none" stroke="#000000" d="M290.3898,-392.3986C301.3013,-402.2303 314.1726,-416.2891 320.1459,-432 344.6898,-496.5552 292.2678,-706.1399 271.8389,-782.1451"/>
<polygon fill="#000000" stroke="#000000" points="268.4182,-781.3868 269.1799,-791.9543 275.1744,-783.2183 268.4182,-781.3868"/>
</g>
<!-- 53&#45;&gt;49 -->
<g id="edge79" class="edge">
<title>53&#45;&gt;49</title>
<path fill="none" stroke="#000000" d="M252.2708,-391.3739C236.0662,-402.2779 212.9404,-417.8392 194.5863,-430.1896"/>
<polygon fill="#000000" stroke="#000000" points="192.3533,-427.4735 186.0107,-435.9601 196.2613,-433.2812 192.3533,-427.4735"/>
</g>
<!-- 54 -->
<g id="Rnode54" class="node">
<title>54</title>
<ellipse fill="none" stroke="#000000" cx="264.1459" cy="-450" rx="47.3916" ry="18"/>
<text text-anchor="middle" x="264.1459" y="-446.3" font-family="Times,serif" font-size="14.00" fill="#000000">Sigma_2P</text>
</g>
<!-- 53&#45;&gt;54 -->
<g id="edge77" class="edge">
<title>53&#45;&gt;54</title>
<path fill="none" stroke="#000000" d="M270.1272,-396.1686C269.2716,-403.869 268.2542,-413.0257 267.3033,-421.5834"/>
<polygon fill="#000000" stroke="#000000" points="263.8176,-421.2614 266.1918,-431.5867 270.7748,-422.0344 263.8176,-421.2614"/>
</g>
<!-- 54&#45;&gt;12 -->
<g id="edge6" class="edge">
<title>54&#45;&gt;12</title>
<path fill="none" stroke="#000000" d="M264.9029,-468.1686C265.2238,-475.869 265.6053,-485.0257 265.9619,-493.5834"/>
<polygon fill="#000000" stroke="#000000" points="262.4653,-493.7411 266.3787,-503.5867 269.4593,-493.4497 262.4653,-493.7411"/>
</g>
<!-- 54&#45;&gt;50 -->
<g id="edge7" class="edge">
<title>54&#45;&gt;50</title>
<path fill="none" stroke="#000000" d="M243.2697,-466.3379C230.1517,-476.6042 213.1015,-489.9478 198.9837,-500.9965"/>
<polygon fill="#000000" stroke="#000000" points="196.78,-498.2767 191.062,-507.1961 201.0942,-503.7893 196.78,-498.2767"/>
</g>
<!-- 55&#45;&gt;24 -->
<g id="edge39" class="edge">
<title>55&#45;&gt;24</title>
<path fill="none" stroke="#0000ff" d="M311.2133,-179.7978C308.5104,-187.9064 305.2502,-197.6871 302.2475,-206.6951"/>
<polygon fill="#0000ff" stroke="#0000ff" points="298.8522,-205.8133 299.0102,-216.407 305.493,-208.027 298.8522,-205.8133"/>
</g>
</g>
</svg>
